<svg width="48" height="48" viewBox="0 0 48 48" fill="none" xmlns="http://www.w3.org/2000/svg">
<rect x="12" y="12" width="24" height="24" rx="6" fill="white"/>
<path fill-rule="evenodd" clip-rule="evenodd" d="M4 14.6977C4 8.78951 8.78951 4 14.6977 4H33.3023C39.2105 4 44 8.78951 44 14.6977V33.3023C44 39.2105 39.2105 44 33.3023 44H14.6977C8.78951 44 4 39.2105 4 33.3023V14.6977ZM27.7629 14.1741C28.1921 13.7443 28.8882 13.744 29.3177 14.1735L33.8282 18.684C34.254 19.1098 34.2584 19.7993 33.8381 20.2305L30.8155 23.3317L24.7127 17.2289L27.7629 14.1741ZM24.1299 17.8126L30.2397 23.9225L21.9542 32.4234C21.6439 32.7419 21.2181 32.9215 20.7736 32.9215L15.9561 32.9213C15.4871 32.9212 15.1125 32.5303 15.1323 32.0614L15.3352 27.2359C15.3526 26.8228 15.5243 26.4312 15.8164 26.1387L24.1299 17.8126Z" fill="#269E6C"/>
</svg>
