<svg width="320" height="400" viewBox="0 0 320 400" fill="none" xmlns="http://www.w3.org/2000/svg">
<g clip-path="url(#clip0_102_3131)">
<path d="M340.086 211.026C344.105 209.412 346.725 204.87 346.109 200.584C345.492 196.295 341.698 192.675 337.387 192.26C340.24 188.906 340.95 183.877 339.137 179.864C337.325 175.854 333.081 173.063 328.678 172.99C325.809 172.94 322.761 173.917 320.172 172.68C317.944 171.62 316.698 169.142 316.311 166.702C315.926 164.265 316.24 161.777 316.267 159.311C316.4 146.407 307.819 133.859 295.744 129.309C284.725 138.691 276.959 153.106 277.583 167.564C278.206 182.024 285.808 196.021 297.595 204.42C309.382 212.815 326.659 216.424 340.086 211.026Z" fill="black"/>
<path d="M212.236 406.598C211.581 390.375 210.636 374.708 209.981 358.485C196.124 364.909 181.926 371.425 166.72 372.859C151.514 374.291 134.835 369.686 125.66 357.473C120.256 350.28 117.926 341.111 117.847 332.112C117.77 323.117 119.804 314.227 122.426 305.622C128.004 287.307 135.861 269.283 146.529 253.385C155.356 252.564 164.519 252.057 173.346 251.234C180.958 240.842 190.442 231.482 200.684 223.669C215.509 212.36 233.091 207.45 249.968 201.855C257.235 199.444 264.503 197.037 271.77 194.628C275.566 198.094 280.832 200.036 285.946 199.523C291.056 199.01 295.9 196.232 298.927 192.081C311.68 194.048 323.394 195.368 336.148 197.337C359.907 201.005 383.983 212.778 398.517 231.926C401.623 262.851 406.225 294.08 409.327 325.005C412.391 355.524 415.455 386.042 418.519 416.561L212.236 406.598Z" fill="#6D99D8"/>
<path d="M224.327 304.472C234.734 303.266 245.211 302.664 255.688 302.664C280.106 302.664 304.526 305.928 328.074 312.388C328.356 312.467 328.66 312.417 328.903 312.255C329.149 312.093 329.311 311.831 329.347 311.539C331.014 298.387 332.46 285.647 336.378 273.124C340.297 260.596 346.528 248.59 355.976 239.636C364.65 231.407 376.306 225.959 388.105 225.964C389.141 225.964 390.177 226.005 391.213 226.09C391.771 226.137 392.26 225.721 392.306 225.164C392.353 224.606 391.937 224.115 391.379 224.071C390.287 223.979 389.196 223.937 388.105 223.937C375.673 223.941 363.584 229.633 354.581 238.165C344.799 247.44 338.434 259.765 334.443 272.519C330.453 285.284 329.002 298.152 327.336 311.283L328.342 311.411L328.609 310.434C304.885 303.925 280.286 300.636 255.688 300.636C245.134 300.636 234.58 301.242 224.094 302.459C223.537 302.522 223.139 303.026 223.204 303.582C223.267 304.138 223.772 304.537 224.327 304.472Z" fill="black"/>
<path d="M207.838 219.056C211.141 235.535 212.796 252.343 212.796 269.151C212.796 281.916 211.84 294.678 209.928 307.297C209.845 307.85 210.227 308.367 210.78 308.452C211.334 308.536 211.849 308.154 211.934 307.601C213.862 294.881 214.824 282.017 214.824 269.151C214.824 252.21 213.155 235.268 209.827 218.657C209.716 218.109 209.182 217.752 208.633 217.862C208.083 217.973 207.729 218.506 207.838 219.056Z" fill="black"/>
<path d="M252.373 201.65C252.298 202.429 252.261 203.207 252.261 203.982C252.279 215.248 259.997 225.871 270.426 230.189C274.372 231.816 278.586 232.575 282.809 232.575C290.494 232.573 298.222 230.069 304.542 225.65C314.318 218.809 320.734 207.918 323.479 196.404C323.609 195.861 323.275 195.313 322.729 195.183C322.183 195.054 321.638 195.39 321.508 195.934C318.86 207.044 312.664 217.503 303.381 223.988C297.403 228.171 290.052 230.549 282.809 230.547C278.829 230.547 274.881 229.831 271.198 228.312C261.512 224.334 254.269 214.299 254.289 203.982C254.289 203.272 254.321 202.559 254.392 201.847C254.445 201.289 254.038 200.792 253.482 200.74C252.924 200.685 252.427 201.092 252.373 201.65Z" fill="black"/>
<path d="M218.964 371.347C249.487 384.687 281.394 394.858 314.004 401.635C314.553 401.748 315.089 401.396 315.204 400.848C315.318 400.299 314.965 399.763 314.417 399.65C281.943 392.902 250.171 382.773 219.777 369.489C219.264 369.264 218.666 369.499 218.441 370.012C218.218 370.525 218.451 371.121 218.964 371.347Z" fill="black"/>
<path d="M148.35 269.909C145.035 273.531 143.593 278.781 144.595 283.591C145.595 288.396 149.013 292.634 153.499 294.631C161.656 298.263 170.021 303.442 178.606 300.994C187.194 298.547 194.177 291.491 197.125 283.064C200.073 274.636 199.121 265.051 195.136 257.062C192.387 251.546 188.001 246.57 182.197 244.502C175.104 241.975 166.855 244.307 161.18 249.257C155.508 254.207 149.877 262.536 148.35 269.909Z" fill="#F78B83"/>
<path d="M192.567 405.587L179.837 407.438L145.211 169.281L157.946 167.43L192.567 405.587Z" fill="#772227"/>
<path d="M153.412 174.681C164.589 250.216 175.763 325.751 186.94 401.288C187.021 401.844 187.538 402.225 188.092 402.144C188.645 402.061 189.028 401.546 188.946 400.992C177.771 325.455 166.594 249.92 155.417 174.384C155.336 173.83 154.819 173.447 154.265 173.53C153.712 173.611 153.328 174.126 153.412 174.681Z" fill="black"/>
<path d="M267.516 159.741L31.5065 193.178L11.2008 49.8362L247.208 16.4011L267.516 159.741Z" fill="#F9F9F9"/>
<path d="M217.352 364.13C205.317 368.177 193.283 372.227 181.25 376.278C178.979 377.041 176.649 377.813 174.253 377.756C171.856 377.699 169.339 376.639 168.188 374.536C167.038 372.433 167.149 368.798 169.419 368.025C166.152 369.402 162.011 368.265 159.905 365.411C157.8 362.559 158.487 358.487 160.766 355.772C157.526 355.591 154.492 353.338 153.383 350.287C152.272 347.235 153.113 343.421 155.482 341.2C152.138 340.109 149.565 336.966 149.151 333.473C148.738 329.981 150.508 326.325 153.503 324.484C172.878 312.569 196.509 307.936 219.216 306.62L217.352 364.13Z" fill="#F78B83"/>
<path d="M154.257 342.569C156.96 342.091 159.663 341.614 162.368 341.138C162.919 341.04 163.289 340.513 163.191 339.961C163.094 339.41 162.567 339.043 162.017 339.14C159.312 339.617 156.608 340.095 153.905 340.572C153.353 340.669 152.986 341.195 153.083 341.746C153.18 342.297 153.706 342.667 154.257 342.569Z" fill="black"/>
<path d="M159.627 357.805C161.695 357.171 163.761 356.536 165.83 355.897C166.365 355.733 166.665 355.165 166.501 354.63C166.334 354.095 165.767 353.794 165.233 353.959C163.165 354.597 161.099 355.232 159.031 355.869C158.495 356.033 158.195 356.601 158.359 357.136C158.525 357.672 159.091 357.972 159.627 357.807V357.805Z" fill="black"/>
<path d="M165.821 371.114C167.966 370.513 170.112 369.913 172.259 369.313C172.799 369.163 173.113 368.603 172.963 368.064C172.813 367.525 172.253 367.21 171.714 367.36C169.567 367.961 167.421 368.561 165.276 369.161C164.737 369.311 164.422 369.871 164.572 370.41C164.724 370.949 165.282 371.264 165.821 371.114Z" fill="black"/>
<path d="M183.357 273.894C185.924 273.292 187.964 270.913 188.173 268.287C188.378 265.659 186.518 263.151 184.077 262.155C186.802 261.359 188.737 258.443 188.412 255.62C188.088 252.798 185.912 250.038 183.075 249.88C185.667 249.125 187.526 246.392 187.271 243.705C187.015 241.019 184.359 238.693 181.672 238.441C183.122 237.261 183.909 235.314 183.69 233.457C183.471 231.602 182.763 229.087 180.902 228.909C168.853 227.747 156.419 227.281 144.368 226.121C141.73 227.364 139.799 230.01 139.426 232.902C139.051 235.797 140.244 238.847 142.482 240.72C139.99 242.582 139.098 247.024 139.706 250.074C140.315 253.124 142.784 255.721 145.799 256.484C143.269 258.512 141.448 261.926 142.182 265.086C142.916 268.243 145.57 270.87 148.736 271.576C145.775 273.535 144.285 277.984 145.806 281.192C147.326 284.399 151.359 286.17 154.75 285.117C164.418 282.122 173.504 276.21 183.357 273.894Z" fill="#F78B83"/>
<path d="M156.581 286.92C158.487 286.2 160.395 285.478 162.299 284.759C162.825 284.56 163.088 283.974 162.889 283.451C162.691 282.927 162.107 282.664 161.582 282.861C159.677 283.583 157.771 284.302 155.863 285.024C155.34 285.221 155.076 285.807 155.273 286.33C155.472 286.853 156.058 287.119 156.581 286.92Z" fill="black"/>
<path d="M174.551 279.002C178.726 276.974 182.901 274.949 187.078 272.921C187.857 272.552 188.426 271.923 188.735 271.235C189.049 270.546 189.142 269.816 189.144 269.102C189.144 268.277 189.014 267.462 188.866 266.708C188.371 264.297 186.403 262.373 183.984 261.933L183.809 262.932L184.14 263.891C185.653 263.36 186.843 262.196 187.686 260.833C188.524 259.467 189.027 257.877 189.031 256.338L189.017 255.894C188.777 252.716 186.36 249.965 183.24 249.324L183.043 250.318L183.394 251.269C184.474 250.867 185.462 250.143 186.24 249.237C187.015 248.329 187.593 247.227 187.715 246.013C187.768 245.455 187.36 244.959 186.803 244.906C186.245 244.851 185.75 245.26 185.697 245.816C185.636 246.487 185.269 247.26 184.702 247.919C184.14 248.578 183.388 249.113 182.692 249.367C182.266 249.525 181.997 249.947 182.031 250.399C182.067 250.849 182.4 251.224 182.844 251.313C185.008 251.721 186.863 253.832 186.993 256.032L187.003 256.338C187.007 257.419 186.618 258.707 185.959 259.771C185.304 260.842 184.391 261.665 183.477 261.973C183.041 262.125 182.761 262.553 182.797 263.013C182.834 263.473 183.179 263.85 183.633 263.932C185.178 264.185 186.587 265.562 186.877 267.101C187.015 267.792 187.116 268.494 187.116 269.102C187.119 269.63 187.038 270.076 186.892 270.39C186.739 270.705 186.561 270.911 186.192 271.098C182.015 273.126 177.842 275.151 173.665 277.179C173.162 277.422 172.951 278.031 173.196 278.533C173.439 279.037 174.046 279.247 174.551 279.002Z" fill="black"/>
<path d="M141.953 241.808C155.313 241.236 168.674 240.666 182.033 240.096C182.593 240.072 183.026 239.599 183.004 239.039C182.98 238.48 182.507 238.046 181.948 238.07C168.587 238.64 155.226 239.21 141.866 239.782C141.306 239.804 140.872 240.279 140.896 240.836C140.921 241.396 141.393 241.829 141.953 241.808Z" fill="black"/>
<path d="M144.579 257.897C157.339 255.618 170.102 253.341 182.862 251.062C183.414 250.962 183.781 250.435 183.681 249.884C183.584 249.334 183.057 248.967 182.505 249.064C169.745 251.343 156.983 253.621 144.222 255.9C143.67 255.999 143.303 256.526 143.403 257.076C143.5 257.628 144.027 257.995 144.579 257.897Z" fill="black"/>
<path d="M146.84 273.578L182.925 264.714C183.468 264.581 183.801 264.031 183.667 263.488C183.536 262.944 182.986 262.612 182.443 262.746L146.357 271.609C145.814 271.743 145.481 272.292 145.613 272.836C145.747 273.379 146.296 273.712 146.84 273.578Z" fill="black"/>
<path d="M309.391 196.818C306.529 196.445 303.463 195.833 300.602 195.461C300.47 191.646 300.229 187.72 300.096 183.903C304.311 184.706 308.918 182.855 311.4 179.353C313.886 175.856 314.115 170.896 311.966 167.181C309.816 163.468 305.402 161.197 301.132 161.607C300.771 159.579 300.02 157.415 299.662 155.387C298.388 148.191 293.613 141.023 287.002 137.902C280.394 134.784 272.166 135.406 266.105 139.49C263.74 146.535 260.729 153.631 258.365 160.676C256.554 166.074 255.795 172.885 258.081 178.098C260.366 183.312 265.014 187.438 270.464 189.084C270.464 192.306 270.377 195.096 270.377 198.319C267.982 199.369 265.267 200.154 262.874 201.206C264.02 208.135 268.477 214.07 275.045 216.562C281.611 219.052 289.235 218.209 295.387 214.824C301.541 211.44 306.773 203.333 309.391 196.818Z" fill="#F78B83"/>
<path d="M270.535 161.199C270.535 160.078 269.629 159.171 268.507 159.171C267.388 159.171 266.48 160.078 266.48 161.199C266.48 162.318 267.388 163.227 268.507 163.227C269.629 163.227 270.535 162.318 270.535 161.199Z" fill="black"/>
<path d="M290.238 166.625C290.238 165.504 289.33 164.597 288.211 164.597C287.09 164.597 286.183 165.504 286.183 166.625C286.183 167.744 287.09 168.653 288.211 168.653C289.33 168.653 290.238 167.744 290.238 166.625Z" fill="black"/>
<path d="M274.97 161.842C273.699 164.786 272.425 167.732 271.154 170.677C271.022 170.981 271.046 171.328 271.22 171.612C271.395 171.893 271.693 172.072 272.023 172.09C273.644 172.185 275.264 172.283 276.886 172.378C277.446 172.411 277.924 171.985 277.957 171.425C277.989 170.865 277.564 170.387 277.004 170.355C275.383 170.259 273.763 170.162 272.143 170.066L272.084 171.078L273.015 171.48C274.286 168.535 275.56 165.589 276.831 162.645C277.053 162.13 276.815 161.534 276.302 161.312C275.787 161.09 275.191 161.327 274.97 161.842Z" fill="black"/>
<path d="M277.18 175.03L277.152 176.044C279.38 176.108 281.605 176.174 283.833 176.238L283.861 175.225L282.894 175.525L282.953 175.936C282.975 176.601 282.444 177.542 281.775 178.043C281.388 178.345 280.86 178.515 280.329 178.515C279.891 178.515 279.461 178.4 279.115 178.185L278.583 179.049L279.54 178.715L278.137 174.697L277.18 175.03L277.152 176.044L277.18 175.03L276.223 175.364L277.626 179.384C277.703 179.605 277.851 179.789 278.05 179.911C278.75 180.34 279.542 180.543 280.329 180.543C281.278 180.541 282.233 180.251 283.016 179.645C284.099 178.789 284.958 177.469 284.981 175.936C284.981 175.604 284.934 175.261 284.831 174.924C284.703 174.511 284.324 174.225 283.892 174.211C281.663 174.146 279.437 174.083 277.211 174.018C276.878 174.008 276.56 174.164 276.363 174.432C276.166 174.7 276.113 175.05 276.223 175.364L277.18 175.03Z" fill="black"/>
<path d="M265.47 153.279C266.07 152.394 267.206 151.813 268.29 151.819L268.73 151.851C269.937 152.011 271.089 152.978 271.458 154.139C271.632 154.669 272.204 154.96 272.737 154.785C273.269 154.609 273.558 154.037 273.384 153.504C272.737 151.577 271.03 150.144 269.018 149.844C268.775 149.809 268.532 149.791 268.29 149.791C266.526 149.799 264.823 150.659 263.799 152.129C263.481 152.589 263.599 153.222 264.059 153.538C264.519 153.856 265.151 153.741 265.47 153.279Z" fill="black"/>
<path d="M285.741 156.501C286.404 155.898 287.343 155.552 288.264 155.554C288.618 155.554 288.967 155.604 289.298 155.704C290.492 156.055 291.522 157.133 291.82 158.34C291.958 158.883 292.51 159.21 293.053 159.074C293.594 158.936 293.923 158.385 293.785 157.841C293.286 155.91 291.79 154.347 289.886 153.763C289.357 153.603 288.809 153.526 288.264 153.526C286.852 153.528 285.451 154.033 284.383 154.998C283.967 155.373 283.934 156.014 284.31 156.43C284.685 156.845 285.328 156.878 285.743 156.501H285.741Z" fill="black"/>
<path d="M296.835 184.767C298.268 184.994 299.702 185.222 301.134 185.45C301.687 185.538 302.206 185.161 302.295 184.609C302.383 184.056 302.006 183.536 301.454 183.447C300.02 183.22 298.586 182.993 297.153 182.764C296.601 182.677 296.081 183.054 295.993 183.607C295.906 184.159 296.283 184.68 296.835 184.767Z" fill="black"/>
<path d="M300.917 171.829C303.857 171.485 306.795 171.145 309.735 170.805C310.291 170.739 310.69 170.237 310.625 169.681C310.561 169.125 310.057 168.726 309.502 168.791C306.562 169.131 303.621 169.472 300.682 169.815C300.126 169.88 299.726 170.383 299.791 170.938C299.856 171.494 300.359 171.893 300.917 171.829Z" fill="black"/>
<path d="M269.175 190.114C271.657 191.341 274.412 191.968 277.172 191.968C278.383 191.968 279.591 191.848 280.779 191.603C281.329 191.489 281.682 190.952 281.568 190.405C281.454 189.857 280.919 189.504 280.37 189.616C279.319 189.833 278.247 189.94 277.172 189.94C274.721 189.94 272.265 189.38 270.073 188.295C269.572 188.048 268.964 188.255 268.716 188.756C268.467 189.258 268.674 189.865 269.175 190.114Z" fill="black"/>
<path d="M299.14 131.3C292.457 124.99 282.221 122.725 273.5 125.627C264.779 128.53 257.943 136.479 256.38 145.537L283.951 151.636C285.366 149.209 286.777 146.784 288.191 144.357C288.252 147.11 288.312 149.862 288.373 152.615L306.262 156.576C308.665 147.703 305.82 137.612 299.14 131.3Z" fill="black"/>
<path d="M58.2441 106.479L55.9329 89.8392L58.3101 89.509L60.3341 104.081L69.3436 102.83L69.6308 104.898L58.2441 106.479ZM77.4933 103.951C76.1462 104.138 74.9191 104.026 73.8119 103.614C72.7206 103.201 71.8226 102.55 71.1178 101.663C70.4288 100.773 69.9974 99.7021 69.8235 98.4501C69.6496 97.1981 69.765 96.0513 70.1695 95.0098C70.5899 93.966 71.2381 93.1087 72.1142 92.4378C73.0038 91.7488 74.0509 91.3207 75.2553 91.1534C76.4756 90.9839 77.5907 91.1037 78.6006 91.5126C79.6104 91.9216 80.4451 92.581 81.1045 93.4909C81.7776 94.3828 82.2044 95.4785 82.3849 96.778C82.3982 96.8731 82.4056 96.9852 82.4074 97.1142C82.425 97.2409 82.4336 97.3609 82.4332 97.474L71.7121 98.9631L71.4842 97.3229L81.0167 95.9989L80.1689 96.6982C80.0725 95.8877 79.8059 95.1898 79.3692 94.6043C78.9325 94.0188 78.3809 93.5946 77.7144 93.3318C77.0616 93.051 76.331 92.9667 75.5228 93.0789C74.7304 93.189 74.0505 93.4692 73.483 93.9195C72.9134 94.354 72.4994 94.9204 72.241 95.6186C71.9804 96.3009 71.9073 97.0541 72.0218 97.8782L72.0746 98.2586C72.1913 99.0985 72.486 99.8249 72.9588 100.438C73.4452 101.032 74.0624 101.464 74.8104 101.731C75.5583 101.999 76.3839 102.07 77.2872 101.944C78.0321 101.841 78.688 101.621 79.255 101.283C79.8379 100.944 80.3239 100.489 80.713 99.9179L82.1776 101.217C81.6996 101.962 81.0568 102.568 80.2495 103.035C79.458 103.501 78.5392 103.806 77.4933 103.951ZM90.7652 102.108C89.4974 102.284 88.4675 102.08 87.6755 101.495C86.8835 100.91 86.3995 99.9842 86.2234 98.7164L84.6187 87.1633L86.9008 86.8463L88.4923 98.3043C88.587 98.9858 88.826 99.4857 89.2094 99.8039C89.6087 100.12 90.1253 100.234 90.7592 100.146C91.4724 100.047 92.0392 99.7663 92.4596 99.304L93.4005 100.845C93.0937 101.195 92.7046 101.475 92.2331 101.686C91.7775 101.895 91.2882 102.035 90.7652 102.108ZM83.1231 92.096L82.8623 90.218L90.8972 89.102L91.158 90.98L83.1231 92.096ZM93.81 90.1755L94.3284 85.1847L94.8289 86.5205C94.3693 86.5844 93.9612 86.4957 93.6047 86.2544C93.2639 86.011 93.0605 85.6516 92.9945 85.1761C92.9263 84.6848 93.0229 84.2756 93.2844 83.9486C93.5595 83.6034 93.919 83.4 94.3627 83.3384C94.8223 83.2746 95.2167 83.3813 95.546 83.6587C95.8731 83.9202 96.0685 84.2807 96.1324 84.7403C96.1522 84.8829 96.1652 85.0346 96.1713 85.1952C96.1753 85.3401 96.1588 85.512 96.1218 85.711C96.1007 85.9077 96.0556 86.1644 95.9865 86.4809L95.3077 89.9674L93.81 90.1755ZM104.886 100.146C103.84 100.292 102.822 100.288 101.832 100.135C100.857 99.9792 100.072 99.7329 99.4754 99.3957L100.175 97.457C100.765 97.7466 101.473 97.9632 102.301 98.1067C103.129 98.2502 103.954 98.2648 104.779 98.1503C105.84 98.0028 106.58 97.7466 106.998 97.3817C107.432 97.0145 107.611 96.5615 107.536 96.0227C107.481 95.6265 107.295 95.3373 106.979 95.155C106.663 94.9728 106.26 94.8592 105.769 94.8143C105.294 94.7672 104.766 94.7437 104.184 94.7437C103.6 94.7278 103.015 94.6961 102.426 94.6486C101.836 94.5852 101.287 94.4677 100.778 94.296C100.268 94.1085 99.8399 93.8206 99.4952 93.4323C99.1483 93.0282 98.9242 92.4616 98.823 91.7326C98.7173 90.9719 98.8388 90.2766 99.1875 89.6466C99.5361 89.0167 100.078 88.4972 100.813 88.0882C101.561 87.6612 102.474 87.3729 103.552 87.2232C104.376 87.1087 105.222 87.0962 106.091 87.1855C106.973 87.2568 107.709 87.4373 108.298 87.727L107.574 89.669C106.951 89.3679 106.32 89.189 105.682 89.1322C105.045 89.0754 104.417 89.0899 103.799 89.1758C102.8 89.3145 102.078 89.5843 101.633 89.9854C101.186 90.3706 100.998 90.8167 101.068 91.3238C101.128 91.7517 101.316 92.0647 101.635 92.2628C101.967 92.4429 102.371 92.5644 102.848 92.6273C103.341 92.6881 103.88 92.7264 104.464 92.7422C105.045 92.7422 105.631 92.7739 106.221 92.8373C106.809 92.8848 107.35 92.9955 107.842 93.1694C108.351 93.3411 108.777 93.6211 109.122 94.0094C109.483 94.3954 109.712 94.945 109.812 95.6582C109.917 96.4189 109.787 97.1074 109.42 97.7237C109.053 98.34 108.488 98.8628 107.724 99.292C106.957 99.7054 106.011 99.9902 104.886 100.146ZM123.179 97.6056C122.133 97.7509 121.115 97.747 120.125 97.5938C119.15 97.4384 118.365 97.1921 117.769 96.8549L118.469 94.9161C119.058 95.2058 119.767 95.4224 120.594 95.5659C121.422 95.7094 122.248 95.7239 123.072 95.6095C124.133 95.462 124.873 95.2058 125.291 94.8408C125.725 94.4737 125.904 94.0207 125.829 93.4819C125.774 93.0857 125.589 92.7964 125.273 92.6142C124.956 92.4319 124.553 92.3184 124.062 92.2735C123.587 92.2264 123.059 92.2028 122.477 92.2028C121.894 92.187 121.308 92.1553 120.72 92.1078C120.129 92.0444 119.58 91.9268 119.071 91.7552C118.561 91.5676 118.133 91.2797 117.788 90.8915C117.441 90.4873 117.217 89.9208 117.116 89.1918C117.01 88.4311 117.132 87.7357 117.481 87.1058C117.829 86.4758 118.371 85.9564 119.106 85.5474C119.854 85.1204 120.767 84.832 121.845 84.6824C122.669 84.5679 123.515 84.5553 124.384 84.6447C125.266 84.716 126.002 84.8965 126.591 85.1862L125.867 87.1282C125.244 86.8271 124.613 86.6481 123.976 86.5914C123.338 86.5346 122.71 86.5491 122.092 86.6349C121.093 86.7736 120.372 87.0435 119.926 87.4445C119.479 87.8297 119.291 88.2759 119.361 88.783C119.421 89.2109 119.61 89.5239 119.928 89.722C120.26 89.902 120.664 90.0235 121.141 90.0865C121.635 90.1472 122.173 90.1855 122.757 90.2014C123.338 90.2014 123.924 90.2331 124.514 90.2965C125.103 90.344 125.643 90.4547 126.136 90.6286C126.644 90.8003 127.071 91.0802 127.415 91.4685C127.776 91.8546 128.006 92.4042 128.105 93.1173C128.21 93.878 128.08 94.5665 127.713 95.1829C127.346 95.7992 126.781 96.3219 126.017 96.7511C125.25 97.1645 124.305 97.4493 123.179 97.6056ZM139.276 95.2245L138.906 92.562L138.718 92.0793L138.088 87.5389C137.953 86.5722 137.565 85.867 136.921 85.4232C136.292 84.9614 135.415 84.8087 134.289 84.965C133.545 85.0684 132.833 85.2965 132.155 85.6491C131.475 85.9859 130.918 86.3944 130.484 86.8747L129.295 85.2952C129.872 84.6819 130.594 84.1779 131.46 83.783C132.339 83.3701 133.278 83.0943 134.277 82.9556C136.004 82.7157 137.394 82.9507 138.445 83.6608C139.497 84.3709 140.143 85.5896 140.383 87.317L141.439 94.924L139.276 95.2245ZM135.16 95.9416C134.225 96.0715 133.379 96.0275 132.621 95.8096C131.88 95.5895 131.281 95.2285 130.823 94.7266C130.364 94.2089 130.084 93.5935 129.985 92.8804C129.891 92.1989 129.963 91.5588 130.203 90.9601C130.459 90.3592 130.928 89.8417 131.611 89.4077C132.31 88.9714 133.285 88.6663 134.537 88.4924L138.531 87.9377L138.758 89.578L134.86 90.1195C133.719 90.278 132.977 90.5749 132.633 91.0103C132.29 91.4457 132.156 91.9328 132.231 92.4716C132.316 93.0897 132.631 93.5548 133.175 93.8669C133.717 94.1631 134.424 94.2507 135.296 94.1297C136.152 94.0108 136.87 93.7172 137.451 93.2488C138.048 92.7782 138.438 92.1586 138.622 91.3899L139.292 92.8961C139.094 93.6828 138.646 94.3509 137.947 94.9002C137.246 95.4338 136.317 95.7809 135.16 95.9416ZM148.735 93.9107L141.47 82.0777L143.847 81.7475L150.329 92.4778L149.188 92.6363L152.595 80.5324L154.83 80.2221L151.064 93.5871L148.735 93.9107ZM163.991 91.9371C162.644 92.1242 161.417 92.0119 160.31 91.6003C159.218 91.1865 158.32 90.5359 157.616 89.6484C156.927 88.7587 156.495 87.6879 156.321 86.4359C156.147 85.1839 156.263 84.0372 156.667 82.9956C157.088 81.9518 157.736 81.0945 158.612 80.4236C159.502 79.7347 160.549 79.3066 161.753 79.1393C162.973 78.9698 164.088 79.0895 165.098 79.4985C166.108 79.9074 166.943 80.5669 167.602 81.4768C168.275 82.3687 168.702 83.4644 168.883 84.7639C168.896 84.859 168.903 84.971 168.905 85.1C168.923 85.2268 168.931 85.3467 168.931 85.4599L158.21 86.949L157.982 85.3087L167.514 83.9847L166.667 84.684C166.57 83.8736 166.304 83.1756 165.867 82.5901C165.43 82.0046 164.879 81.5805 164.212 81.3177C163.559 81.0368 162.829 80.9525 162.021 81.0648C161.228 81.1748 160.548 81.455 159.981 81.9054C159.411 82.3399 158.997 82.9062 158.739 83.6044C158.478 84.2868 158.405 85.04 158.52 85.8641L158.572 86.2444C158.689 87.0843 158.984 87.8107 159.457 88.4235C159.943 89.0182 160.56 89.4494 161.308 89.7171C162.056 89.9847 162.882 90.0558 163.785 89.9303C164.53 89.8269 165.186 89.6065 165.753 89.2693C166.336 88.9299 166.822 88.4747 167.211 87.9038L168.675 89.2026C168.197 89.9475 167.555 90.5537 166.747 91.0212C165.956 91.4865 165.037 91.7918 163.991 91.9371ZM183.647 89.2069C182.379 89.383 181.349 89.1788 180.557 88.5942C179.765 88.0096 179.281 87.0834 179.105 85.8155L177.501 74.2624L179.783 73.9455L181.374 85.4035C181.469 86.0849 181.708 86.5848 182.091 86.9031C182.49 87.2191 183.007 87.3332 183.641 87.2451C184.354 87.1461 184.921 86.8654 185.341 86.4032L186.282 87.9444C185.975 88.2939 185.586 88.5741 185.115 88.785C184.659 88.9937 184.17 89.1343 183.647 89.2069ZM176.005 79.1951L175.744 77.3171L183.779 76.2011L184.04 78.0791L176.005 79.1951ZM194.105 74.6458C195.135 74.5027 196.066 74.5753 196.897 74.8637C197.745 75.1498 198.446 75.6662 199.002 76.4128C199.558 77.1594 199.922 78.1508 200.094 79.3869L201.101 86.6373L198.819 86.9543L197.848 79.9654C197.679 78.7451 197.25 77.8677 196.562 77.3333C195.89 76.7967 195.015 76.6032 193.937 76.7529C193.129 76.8651 192.445 77.1216 191.887 77.5222C191.329 77.9228 190.927 78.4552 190.68 79.1195C190.448 79.7816 190.397 80.5722 190.524 81.4914L191.426 87.9811L189.144 88.2981L186.694 70.6594L188.976 70.3424L190.148 78.7814L189.571 77.9408C189.868 77.0595 190.413 76.3296 191.205 75.7512C191.997 75.1727 192.964 74.8043 194.105 74.6458ZM210.954 85.4141C209.607 85.6012 208.38 85.4889 207.273 85.0773C206.182 84.6635 205.284 84.0129 204.579 83.1254C203.89 82.2357 203.458 81.1649 203.284 79.9129C203.111 78.661 203.226 77.5142 203.63 76.4726C204.051 75.4289 204.699 74.5715 205.575 73.9006C206.465 73.2117 207.512 72.7836 208.716 72.6163C209.937 72.4468 211.052 72.5665 212.062 72.9755C213.071 73.3844 213.906 74.0439 214.566 74.9538C215.239 75.8457 215.665 76.9414 215.846 78.2409C215.859 78.336 215.867 78.448 215.868 78.577C215.886 78.7038 215.895 78.8238 215.894 78.9369L205.173 80.426L204.945 78.7857L214.478 77.4617L213.63 78.161C213.533 77.3506 213.267 76.6526 212.83 76.0671C212.393 75.4816 211.842 75.0575 211.175 74.7947C210.523 74.5138 209.792 74.4295 208.984 74.5418C208.191 74.6519 207.511 74.9321 206.944 75.3824C206.374 75.8169 205.96 76.3832 205.702 77.0814C205.441 77.7638 205.368 78.517 205.483 79.3411L205.536 79.7214C205.652 80.5614 205.947 81.2877 206.42 81.9005C206.906 82.4952 207.523 82.9264 208.271 83.1941C209.019 83.4617 209.845 83.5328 210.748 83.4073C211.493 83.3039 212.149 83.0836 212.716 82.7463C213.299 82.4069 213.785 81.9517 214.174 81.3808L215.639 82.6796C215.161 83.4245 214.518 84.0307 213.71 84.4982C212.919 84.9635 212 85.2688 210.954 85.4141ZM61.5876 138.468C60.3198 138.644 59.2899 138.439 58.4979 137.855C57.706 137.27 57.2219 136.344 57.0458 135.076L55.4412 123.523L57.7233 123.206L59.3147 134.664C59.4094 135.346 59.6484 135.845 60.0319 136.164C60.4311 136.48 60.9477 136.594 61.5816 136.506C62.2948 136.407 62.8616 136.126 63.282 135.664L64.223 137.205C63.9161 137.555 63.527 137.835 63.0555 138.046C62.5999 138.254 62.1106 138.395 61.5876 138.468ZM53.9456 128.456L53.6847 126.578L61.7196 125.462L61.9804 127.34L53.9456 128.456ZM67.0843 137.559L65.3344 124.96L67.5214 124.656L67.9968 128.079L67.664 127.253C67.8916 126.333 68.3855 125.586 69.1458 125.012C69.906 124.438 70.8884 124.067 72.0928 123.9L72.3999 126.111C72.3026 126.108 72.2064 126.113 72.1113 126.126C72.0321 126.138 71.9529 126.149 71.8736 126.16C70.6533 126.329 69.7372 126.828 69.1253 127.656C68.5134 128.484 68.3032 129.587 68.4947 130.966L69.3664 137.242L67.0843 137.559ZM82.1859 135.607C80.8388 135.794 79.6117 135.681 78.5045 135.27C77.4132 134.856 76.5152 134.205 75.8104 133.318C75.1214 132.428 74.69 131.357 74.5161 130.105C74.3422 128.854 74.4575 127.707 74.8621 126.665C75.2825 125.621 75.9307 124.764 76.8067 124.093C77.6964 123.404 78.7435 122.976 79.9479 122.809C81.1682 122.639 82.2833 122.759 83.2931 123.168C84.303 123.577 85.1377 124.236 85.7971 125.146C86.4702 126.038 86.897 127.134 87.0775 128.433C87.0907 128.529 87.0982 128.641 87.1 128.77C87.1176 128.896 87.1262 129.016 87.1257 129.129L76.4047 130.619L76.1768 128.978L85.7093 127.654L84.8615 128.354C84.765 127.543 84.4985 126.845 84.0618 126.26C83.6251 125.674 83.0735 125.25 82.407 124.987C81.7542 124.706 81.0236 124.622 80.2154 124.734C79.423 124.844 78.7431 125.125 78.1756 125.575C77.606 126.009 77.192 126.576 76.9336 127.274C76.6729 127.956 76.5999 128.71 76.7143 129.534L76.7672 129.914C76.8838 130.754 77.1786 131.48 77.6514 132.093C78.1378 132.688 78.755 133.119 79.5029 133.387C80.2509 133.654 81.0765 133.725 81.9798 133.6C82.7247 133.496 83.3806 133.276 83.9476 132.939C84.5304 132.599 85.0164 132.144 85.4056 131.573L86.8702 132.872C86.3921 133.617 85.7494 134.223 84.9421 134.691C84.1506 135.156 83.2318 135.461 82.1859 135.607ZM96.7414 133.585C95.3944 133.772 94.1673 133.66 93.0601 133.248C91.9688 132.834 91.0707 132.184 90.366 131.296C89.677 130.407 89.2456 129.336 89.0717 128.084C88.8978 126.832 89.0131 125.685 89.4177 124.643C89.8381 123.6 90.4863 122.742 91.3623 122.071C92.252 121.383 93.2991 120.954 94.5035 120.787C95.7238 120.618 96.8389 120.737 97.8487 121.146C98.8586 121.555 99.6932 122.215 100.353 123.125C101.026 124.017 101.453 125.112 101.633 126.412C101.646 126.507 101.654 126.619 101.656 126.748C101.673 126.875 101.682 126.995 101.681 127.108L90.9602 128.597L90.7324 126.957L100.265 125.633L99.417 126.332C99.3206 125.521 99.0541 124.823 98.6174 124.238C98.1807 123.652 97.6291 123.228 96.9626 122.966C96.3097 122.685 95.5792 122.6 94.7709 122.713C93.9786 122.823 93.2986 123.103 92.7312 123.553C92.1616 123.988 91.7475 124.554 91.4891 125.252C91.2285 125.935 91.1555 126.688 91.2699 127.512L91.3227 127.892C91.4394 128.732 91.7341 129.459 92.2069 130.071C92.6934 130.666 93.3106 131.097 94.0585 131.365C94.8064 131.633 95.6321 131.704 96.5354 131.578C97.2803 131.475 97.9362 131.254 98.5032 130.917C99.086 130.578 99.572 130.123 99.9612 129.552L101.426 130.85C100.948 131.595 100.305 132.202 99.4976 132.669C98.7061 133.134 97.7874 133.44 96.7414 133.585ZM109.3 131.841C108.254 131.986 107.236 131.982 106.246 131.829C105.271 131.673 104.486 131.427 103.889 131.09L104.589 129.151C105.179 129.441 105.887 129.657 106.715 129.801C107.543 129.944 108.368 129.959 109.193 129.844C110.254 129.697 110.994 129.441 111.412 129.076C111.846 128.709 112.025 128.256 111.95 127.717C111.895 127.321 111.709 127.031 111.393 126.849C111.077 126.667 110.674 126.553 110.183 126.508C109.708 126.461 109.18 126.438 108.598 126.438C108.014 126.422 107.429 126.39 106.84 126.343C106.25 126.279 105.701 126.162 105.192 125.99C104.682 125.803 104.254 125.515 103.909 125.126C103.562 124.722 103.338 124.156 103.237 123.427C103.131 122.666 103.253 121.971 103.601 121.341C103.95 120.711 104.492 120.191 105.227 119.782C105.975 119.355 106.888 119.067 107.966 118.917C108.79 118.803 109.636 118.79 110.505 118.88C111.387 118.951 112.123 119.131 112.712 119.421L111.988 121.363C111.365 121.062 110.734 120.883 110.096 120.826C109.459 120.77 108.831 120.784 108.213 120.87C107.214 121.009 106.492 121.278 106.047 121.679C105.6 122.065 105.412 122.511 105.482 123.018C105.542 123.446 105.73 123.759 106.049 123.957C106.381 124.137 106.785 124.258 107.262 124.321C107.755 124.382 108.294 124.42 108.878 124.436C109.459 124.436 110.045 124.468 110.635 124.531C111.223 124.579 111.764 124.69 112.256 124.864C112.765 125.035 113.191 125.315 113.536 125.703C113.897 126.09 114.126 126.639 114.226 127.352C114.331 128.113 114.201 128.801 113.834 129.418C113.467 130.034 112.902 130.557 112.138 130.986C111.371 131.399 110.425 131.684 109.3 131.841ZM128.306 129.201C127.039 129.377 126.009 129.173 125.217 128.588C124.425 128.003 123.941 127.077 123.765 125.809L122.16 114.256L124.442 113.939L126.034 125.397C126.128 126.079 126.367 126.579 126.751 126.897C127.15 127.213 127.667 127.327 128.301 127.239C129.014 127.14 129.58 126.859 130.001 126.397L130.942 127.938C130.635 128.288 130.246 128.568 129.774 128.779C129.319 128.987 128.829 129.128 128.306 129.201ZM120.664 119.189L120.404 117.311L128.438 116.195L128.699 118.073L120.664 119.189ZM138.801 127.743C137.534 127.919 136.37 127.798 135.31 127.38C134.251 126.962 133.368 126.309 132.664 125.421C131.957 124.518 131.517 123.448 131.346 122.212C131.172 120.96 131.303 119.811 131.739 118.765C132.175 117.719 132.847 116.859 133.755 116.183C134.661 115.492 135.747 115.059 137.015 114.882C138.267 114.709 139.423 114.831 140.482 115.249C141.556 115.649 142.437 116.294 143.126 117.184C143.828 118.055 144.268 119.125 144.444 120.393C144.618 121.645 144.487 122.794 144.05 123.84C143.63 124.884 142.959 125.752 142.038 126.445C141.132 127.137 140.053 127.569 138.801 127.743ZM138.524 125.746C139.332 125.634 140.028 125.352 140.611 124.899C141.21 124.444 141.646 123.859 141.918 123.142C142.188 122.41 142.261 121.601 142.138 120.713C142.012 119.81 141.722 119.059 141.268 118.459C140.811 117.844 140.232 117.4 139.532 117.126C138.847 116.849 138.101 116.767 137.292 116.879C136.484 116.992 135.788 117.274 135.205 117.727C134.622 118.179 134.186 118.765 133.898 119.483C133.608 120.186 133.526 120.989 133.651 121.892C133.775 122.779 134.074 123.537 134.549 124.166C135.022 124.779 135.6 125.223 136.285 125.5C136.969 125.776 137.716 125.858 138.524 125.746ZM154.65 130.242C153.493 130.403 152.345 130.393 151.205 130.212C150.084 130.045 149.14 129.707 148.375 129.2L149.224 127.289C149.881 127.714 150.657 128.01 151.553 128.177C152.45 128.359 153.367 128.385 154.302 128.255C155.791 128.049 156.836 127.548 157.437 126.754C158.037 125.96 158.238 124.849 158.04 123.423L157.671 120.761L157.562 118.232L157.093 115.728L156.614 112.281L158.777 111.981L160.289 122.868C160.598 125.087 160.27 126.796 159.306 127.997C158.342 129.197 156.79 129.945 154.65 130.242ZM153.632 125.005C152.412 125.174 151.283 125.072 150.246 124.7C149.222 124.309 148.361 123.693 147.663 122.853C146.981 122.011 146.556 120.988 146.389 119.783C146.219 118.563 146.349 117.463 146.778 116.482C147.221 115.484 147.883 114.665 148.763 114.026C149.66 113.385 150.718 112.979 151.938 112.81C153.016 112.66 154.029 112.745 154.978 113.066C155.925 113.371 156.723 113.938 157.371 114.769C158.036 115.597 158.464 116.701 158.655 118.08C158.844 119.443 158.732 120.613 158.319 121.591C157.921 122.567 157.311 123.347 156.487 123.93C155.661 124.497 154.71 124.855 153.632 125.005ZM153.616 122.971C154.456 122.855 155.177 122.577 155.778 122.138C156.379 121.699 156.819 121.145 157.098 120.477C157.393 119.806 157.484 119.066 157.371 118.258C157.259 117.45 156.97 116.763 156.504 116.198C156.053 115.63 155.48 115.225 154.784 114.983C154.086 114.724 153.317 114.654 152.477 114.77C151.637 114.887 150.909 115.166 150.291 115.607C149.688 116.03 149.239 116.577 148.944 117.248C148.666 117.916 148.582 118.655 148.695 119.463C148.807 120.271 149.088 120.959 149.539 121.527C150.005 122.092 150.587 122.504 151.285 122.762C151.999 123.018 152.776 123.088 153.616 122.971ZM170.518 123.338C169.17 123.525 167.943 123.413 166.836 123.001C165.745 122.587 164.847 121.937 164.142 121.049C163.453 120.159 163.022 119.089 162.848 117.837C162.674 116.585 162.789 115.438 163.194 114.396C163.614 113.353 164.262 112.495 165.138 111.824C166.028 111.135 167.075 110.707 168.28 110.54C169.5 110.37 170.615 110.49 171.625 110.899C172.635 111.308 173.469 111.968 174.129 112.877C174.802 113.769 175.229 114.865 175.409 116.165C175.422 116.26 175.43 116.372 175.432 116.501C175.449 116.627 175.458 116.747 175.457 116.861L164.736 118.35L164.509 116.709L174.041 115.385L173.193 116.085C173.097 115.274 172.83 114.576 172.393 113.991C171.957 113.405 171.405 112.981 170.739 112.718C170.086 112.438 169.355 112.353 168.547 112.465C167.755 112.576 167.075 112.856 166.507 113.306C165.938 113.741 165.524 114.307 165.265 115.005C165.005 115.687 164.932 116.441 165.046 117.265L165.099 117.645C165.216 118.485 165.51 119.211 165.983 119.824C166.47 120.419 167.087 120.85 167.835 121.118C168.583 121.385 169.408 121.456 170.312 121.331C171.056 121.228 171.712 121.007 172.279 120.67C172.862 120.331 173.348 119.875 173.737 119.304L175.202 120.603C174.724 121.348 174.081 121.954 173.274 122.422C172.482 122.887 171.564 123.192 170.518 123.338ZM184.404 108.3C185.434 108.157 186.365 108.23 187.197 108.518C188.044 108.804 188.746 109.321 189.302 110.067C189.858 110.814 190.222 111.805 190.393 113.041L191.4 120.292L189.118 120.609L188.148 113.62C187.978 112.4 187.549 111.522 186.861 110.988C186.189 110.451 185.314 110.258 184.236 110.407C183.428 110.52 182.745 110.776 182.187 111.177C181.629 111.577 181.226 112.11 180.979 112.774C180.748 113.436 180.696 114.227 180.824 115.146L181.725 121.636L179.443 121.953L176.993 104.314L179.275 103.997L180.447 112.436L179.87 111.595C180.168 110.714 180.713 109.984 181.505 109.406C182.297 108.827 183.263 108.459 184.404 108.3ZM199.97 119.247C198.702 119.423 197.672 119.219 196.88 118.634C196.088 118.05 195.604 117.123 195.428 115.856L193.824 104.302L196.106 103.985L197.697 115.443C197.792 116.125 198.031 116.625 198.414 116.943C198.814 117.259 199.33 117.373 199.964 117.285C200.677 117.186 201.244 116.905 201.664 116.443L202.605 117.984C202.299 118.334 201.909 118.614 201.438 118.825C200.982 119.034 200.493 119.174 199.97 119.247ZM192.328 109.235L192.067 107.357L200.102 106.241L200.363 108.119L192.328 109.235ZM210.679 117.76C209.332 117.947 208.105 117.834 206.998 117.423C205.906 117.009 205.008 116.358 204.303 115.471C203.614 114.581 203.183 113.51 203.009 112.258C202.835 111.006 202.951 109.86 203.355 108.818C203.776 107.774 204.424 106.917 205.3 106.246C206.189 105.557 207.237 105.129 208.441 104.962C209.661 104.792 210.776 104.912 211.786 105.321C212.796 105.73 213.631 106.389 214.29 107.299C214.963 108.191 215.39 109.287 215.571 110.586C215.584 110.681 215.591 110.793 215.593 110.922C215.611 111.049 215.619 111.169 215.619 111.282L204.898 112.771L204.67 111.131L214.202 109.807L213.354 110.506C213.258 109.696 212.992 108.998 212.555 108.413C212.118 107.827 211.567 107.403 210.9 107.14C210.247 106.859 209.517 106.775 208.708 106.887C207.916 106.997 207.236 107.277 206.669 107.728C206.099 108.162 205.685 108.729 205.427 109.427C205.166 110.109 205.093 110.862 205.207 111.687L205.26 112.067C205.377 112.907 205.672 113.633 206.144 114.246C206.631 114.841 207.248 115.272 207.996 115.54C208.744 115.807 209.57 115.878 210.473 115.753C211.218 115.649 211.874 115.429 212.441 115.092C213.023 114.752 213.509 114.297 213.899 113.726L215.363 115.025C214.885 115.77 214.242 116.376 213.435 116.844C212.644 117.309 211.725 117.614 210.679 117.76ZM219.605 116.374L217.855 103.775L220.042 103.472L220.517 106.895L220.184 106.069C220.412 105.149 220.906 104.402 221.666 103.828C222.426 103.253 223.409 102.883 224.613 102.715L224.92 104.926C224.823 104.924 224.727 104.929 224.632 104.942C224.552 104.953 224.473 104.964 224.394 104.975C223.174 105.145 222.257 105.643 221.646 106.471C221.034 107.3 220.823 108.403 221.015 109.782L221.887 116.057L219.605 116.374Z" fill="#1D1D1F"/>
</g>
<defs>
<clipPath id="clip0_102_3131">
<rect width="400" height="400" fill="white"/>
</clipPath>
</defs>
</svg>
