<svg width="184" height="32" viewBox="0 0 184 32" fill="none" xmlns="http://www.w3.org/2000/svg">
<path d="M5.20406 20.04L5.03606 16.344L13.8441 7.2H17.3481L10.0281 14.976L8.30006 16.872L5.20406 20.04ZM2.42006 24V7.2H5.54006V24H2.42006ZM14.1321 24L7.70006 16.344L9.76406 14.064L17.7801 24H14.1321ZM26.6541 11.04C27.6781 11.04 28.5901 11.24 29.3901 11.64C30.2061 12.04 30.8461 12.656 31.3101 13.488C31.7741 14.304 32.0061 15.36 32.0061 16.656V24H29.0061V17.04C29.0061 15.904 28.7341 15.056 28.1901 14.496C27.6621 13.936 26.9181 13.656 25.9581 13.656C25.2541 13.656 24.6301 13.8 24.0861 14.088C23.5421 14.376 23.1181 14.808 22.8141 15.384C22.5261 15.944 22.3821 16.656 22.3821 17.52V24H19.3821V11.184H22.2381V14.64L21.7341 13.584C22.1821 12.768 22.8301 12.144 23.6781 11.712C24.5421 11.264 25.5341 11.04 26.6541 11.04ZM41.5952 24.168C40.2832 24.168 39.1152 23.888 38.0912 23.328C37.0672 22.752 36.2592 21.968 35.6672 20.976C35.0752 19.984 34.7792 18.856 34.7792 17.592C34.7792 16.312 35.0752 15.184 35.6672 14.208C36.2592 13.216 37.0672 12.44 38.0912 11.88C39.1152 11.32 40.2832 11.04 41.5952 11.04C42.9232 11.04 44.0992 11.32 45.1232 11.88C46.1632 12.44 46.9712 13.208 47.5472 14.184C48.1392 15.16 48.4352 16.296 48.4352 17.592C48.4352 18.856 48.1392 19.984 47.5472 20.976C46.9712 21.968 46.1632 22.752 45.1232 23.328C44.0992 23.888 42.9232 24.168 41.5952 24.168ZM41.5952 21.6C42.3312 21.6 42.9872 21.44 43.5632 21.12C44.1392 20.8 44.5872 20.336 44.9072 19.728C45.2432 19.12 45.4112 18.408 45.4112 17.592C45.4112 16.76 45.2432 16.048 44.9072 15.456C44.5872 14.848 44.1392 14.384 43.5632 14.064C42.9872 13.744 42.3392 13.584 41.6192 13.584C40.8832 13.584 40.2272 13.744 39.6512 14.064C39.0912 14.384 38.6432 14.848 38.3072 15.456C37.9712 16.048 37.8032 16.76 37.8032 17.592C37.8032 18.408 37.9712 19.12 38.3072 19.728C38.6432 20.336 39.0912 20.8 39.6512 21.12C40.2272 21.44 40.8752 21.6 41.5952 21.6ZM53.7844 24L49.0804 11.184H51.9124L55.9444 22.488H54.6004L58.8244 11.184H61.3444L65.4484 22.488H64.1284L68.2804 11.184H70.9444L66.2164 24H63.3364L59.5924 13.992H60.4804L56.6644 24H53.7844ZM79.9279 24V7.2H82.4959L89.8399 19.464H88.4959L95.7199 7.2H98.2879L98.3119 24H95.3599L95.3359 11.832H95.9599L89.8159 22.08H88.4239L82.1839 11.832H82.9039V24H79.9279ZM108.322 24.168C107.01 24.168 105.842 23.888 104.818 23.328C103.794 22.752 102.986 21.968 102.394 20.976C101.802 19.984 101.506 18.856 101.506 17.592C101.506 16.312 101.802 15.184 102.394 14.208C102.986 13.216 103.794 12.44 104.818 11.88C105.842 11.32 107.01 11.04 108.322 11.04C109.65 11.04 110.826 11.32 111.85 11.88C112.89 12.44 113.698 13.208 114.274 14.184C114.866 15.16 115.162 16.296 115.162 17.592C115.162 18.856 114.866 19.984 114.274 20.976C113.698 21.968 112.89 22.752 111.85 23.328C110.826 23.888 109.65 24.168 108.322 24.168ZM108.322 21.6C109.058 21.6 109.714 21.44 110.29 21.12C110.866 20.8 111.314 20.336 111.634 19.728C111.97 19.12 112.138 18.408 112.138 17.592C112.138 16.76 111.97 16.048 111.634 15.456C111.314 14.848 110.866 14.384 110.29 14.064C109.714 13.744 109.066 13.584 108.346 13.584C107.61 13.584 106.954 13.744 106.378 14.064C105.818 14.384 105.37 14.848 105.034 15.456C104.698 16.048 104.53 16.76 104.53 17.592C104.53 18.408 104.698 19.12 105.034 19.728C105.37 20.336 105.818 20.8 106.378 21.12C106.954 21.44 107.602 21.6 108.322 21.6ZM118.031 24V11.184H120.887V14.712L120.551 13.68C120.935 12.816 121.535 12.16 122.351 11.712C123.183 11.264 124.215 11.04 125.447 11.04V13.896C125.319 13.864 125.199 13.848 125.087 13.848C124.975 13.832 124.863 13.824 124.751 13.824C123.615 13.824 122.711 14.16 122.039 14.832C121.367 15.488 121.031 16.472 121.031 17.784V24H118.031ZM133.898 24.168C132.474 24.168 131.226 23.888 130.154 23.328C129.098 22.752 128.274 21.968 127.682 20.976C127.106 19.984 126.818 18.856 126.818 17.592C126.818 16.312 127.098 15.184 127.658 14.208C128.234 13.216 129.018 12.44 130.01 11.88C131.018 11.32 132.162 11.04 133.442 11.04C134.69 11.04 135.802 11.312 136.778 11.856C137.754 12.4 138.522 13.168 139.082 14.16C139.642 15.152 139.922 16.32 139.922 17.664C139.922 17.792 139.914 17.936 139.898 18.096C139.898 18.256 139.89 18.408 139.874 18.552H129.194V16.56H138.29L137.114 17.184C137.13 16.448 136.978 15.8 136.658 15.24C136.338 14.68 135.898 14.24 135.338 13.92C134.794 13.6 134.162 13.44 133.442 13.44C132.706 13.44 132.058 13.6 131.498 13.92C130.954 14.24 130.522 14.688 130.202 15.264C129.898 15.824 129.746 16.488 129.746 17.256V17.736C129.746 18.504 129.922 19.184 130.274 19.776C130.626 20.368 131.122 20.824 131.762 21.144C132.402 21.464 133.138 21.624 133.97 21.624C134.69 21.624 135.338 21.512 135.914 21.288C136.49 21.064 137.002 20.712 137.45 20.232L139.058 22.08C138.482 22.752 137.754 23.272 136.874 23.64C136.01 23.992 135.018 24.168 133.898 24.168Z" fill="#0C1821"/>
<path d="M172.75 21L177.043 16.7071C177.433 16.3166 177.433 15.6834 177.043 15.2929L172.75 11" stroke="#0C1821" stroke-width="2" stroke-linecap="round"/>
<path d="M176.5 16L159 16" stroke="#0C1821" stroke-width="2" stroke-linecap="round"/>
</svg>
