<svg width="348" height="24" viewBox="0 0 348 24" fill="none" xmlns="http://www.w3.org/2000/svg">
<path d="M185.57 19.14C184.663 19.14 183.856 18.94 183.15 18.54C182.443 18.14 181.883 17.54 181.47 16.74C181.07 15.9267 180.87 14.9 180.87 13.66C180.87 12.4067 181.076 11.38 181.49 10.58C181.916 9.78 182.483 9.18667 183.19 8.8C183.91 8.4 184.703 8.2 185.57 8.2C186.623 8.2 187.55 8.42667 188.35 8.88C189.163 9.33333 189.803 9.96667 190.27 10.78C190.75 11.5933 190.99 12.5533 190.99 13.66C190.99 14.7667 190.75 15.7267 190.27 16.54C189.803 17.3533 189.163 17.9933 188.35 18.46C187.55 18.9133 186.623 19.14 185.57 19.14ZM179.65 19V4.16H182.15V10.8L181.95 13.64L182.03 16.48V19H179.65ZM185.29 17C185.89 17 186.423 16.8667 186.89 16.6C187.37 16.3333 187.75 15.9467 188.03 15.44C188.31 14.9333 188.45 14.34 188.45 13.66C188.45 12.9667 188.31 12.3733 188.03 11.88C187.75 11.3733 187.37 10.9867 186.89 10.72C186.423 10.4533 185.89 10.32 185.29 10.32C184.69 10.32 184.15 10.4533 183.67 10.72C183.19 10.9867 182.81 11.3733 182.53 11.88C182.25 12.3733 182.11 12.9667 182.11 13.66C182.11 14.34 182.25 14.9333 182.53 15.44C182.81 15.9467 183.19 16.3333 183.67 16.6C184.15 16.8667 184.69 17 185.29 17ZM193.948 23.02C193.428 23.02 192.908 22.9333 192.388 22.76C191.868 22.5867 191.434 22.3467 191.088 22.04L192.088 20.2C192.341 20.4267 192.628 20.6067 192.948 20.74C193.268 20.8733 193.594 20.94 193.928 20.94C194.381 20.94 194.748 20.8267 195.028 20.6C195.308 20.3733 195.568 19.9933 195.808 19.46L196.428 18.06L196.628 17.76L200.668 8.32H203.068L198.068 19.86C197.734 20.66 197.361 21.2933 196.948 21.76C196.548 22.2267 196.094 22.5533 195.588 22.74C195.094 22.9267 194.548 23.02 193.948 23.02ZM196.148 19.38L191.328 8.32H193.928L197.848 17.54L196.148 19.38ZM210.398 19V5H216.158C217.398 5 218.458 5.2 219.338 5.6C220.231 6 220.918 6.57333 221.398 7.32C221.878 8.06667 222.118 8.95333 222.118 9.98C222.118 11.0067 221.878 11.8933 221.398 12.64C220.918 13.3867 220.231 13.96 219.338 14.36C218.458 14.76 217.398 14.96 216.158 14.96H211.838L212.998 13.74V19H210.398ZM212.998 14.02L211.838 12.76H216.038C217.184 12.76 218.044 12.52 218.618 12.04C219.204 11.5467 219.498 10.86 219.498 9.98C219.498 9.08667 219.204 8.4 218.618 7.92C218.044 7.44 217.184 7.2 216.038 7.2H211.838L212.998 5.92V14.02ZM224.669 19V8.32H227.169V19H224.669ZM225.929 6.56C225.463 6.56 225.076 6.41333 224.769 6.12C224.476 5.82667 224.329 5.47333 224.329 5.06C224.329 4.63333 224.476 4.28 224.769 4C225.076 3.70667 225.463 3.56 225.929 3.56C226.396 3.56 226.776 3.7 227.069 3.98C227.376 4.24667 227.529 4.58667 227.529 5C227.529 5.44 227.383 5.81333 227.089 6.12C226.796 6.41333 226.409 6.56 225.929 6.56ZM236.511 8.2C237.364 8.2 238.124 8.36667 238.791 8.7C239.471 9.03333 240.004 9.54667 240.391 10.24C240.777 10.92 240.971 11.8 240.971 12.88V19H238.471V13.2C238.471 12.2533 238.244 11.5467 237.791 11.08C237.351 10.6133 236.731 10.38 235.931 10.38C235.344 10.38 234.824 10.5 234.371 10.74C233.917 10.98 233.564 11.34 233.311 11.82C233.071 12.2867 232.951 12.88 232.951 13.6V19H230.451V8.32H232.831V11.2L232.411 10.32C232.784 9.64 233.324 9.12 234.031 8.76C234.751 8.38667 235.577 8.2 236.511 8.2ZM249.181 19.14C247.995 19.14 246.955 18.9067 246.061 18.44C245.181 17.96 244.495 17.3067 244.001 16.48C243.521 15.6533 243.281 14.7133 243.281 13.66C243.281 12.5933 243.515 11.6533 243.981 10.84C244.461 10.0133 245.115 9.36667 245.941 8.9C246.781 8.43333 247.735 8.2 248.801 8.2C249.841 8.2 250.768 8.42667 251.581 8.88C252.395 9.33333 253.035 9.97333 253.501 10.8C253.968 11.6267 254.201 12.6 254.201 13.72C254.201 13.8267 254.195 13.9467 254.181 14.08C254.181 14.2133 254.175 14.34 254.161 14.46H245.261V12.8H252.841L251.861 13.32C251.875 12.7067 251.748 12.1667 251.481 11.7C251.215 11.2333 250.848 10.8667 250.381 10.6C249.928 10.3333 249.401 10.2 248.801 10.2C248.188 10.2 247.648 10.3333 247.181 10.6C246.728 10.8667 246.368 11.24 246.101 11.72C245.848 12.1867 245.721 12.74 245.721 13.38V13.78C245.721 14.42 245.868 14.9867 246.161 15.48C246.455 15.9733 246.868 16.3533 247.401 16.62C247.935 16.8867 248.548 17.02 249.241 17.02C249.841 17.02 250.381 16.9267 250.861 16.74C251.341 16.5533 251.768 16.26 252.141 15.86L253.481 17.4C253.001 17.96 252.395 18.3933 251.661 18.7C250.941 18.9933 250.115 19.14 249.181 19.14ZM259.903 19.14C259.01 19.14 258.15 19.0267 257.323 18.8C256.51 18.56 255.863 18.2733 255.383 17.94L256.343 16.04C256.823 16.3467 257.396 16.6 258.063 16.8C258.73 17 259.396 17.1 260.063 17.1C260.85 17.1 261.416 16.9933 261.763 16.78C262.123 16.5667 262.303 16.28 262.303 15.92C262.303 15.6267 262.183 15.4067 261.943 15.26C261.703 15.1 261.39 14.98 261.003 14.9C260.616 14.82 260.183 14.7467 259.703 14.68C259.236 14.6133 258.763 14.5267 258.283 14.42C257.816 14.3 257.39 14.1333 257.003 13.92C256.616 13.6933 256.303 13.3933 256.063 13.02C255.823 12.6467 255.703 12.1533 255.703 11.54C255.703 10.86 255.896 10.2733 256.283 9.78C256.67 9.27333 257.21 8.88667 257.903 8.62C258.61 8.34 259.443 8.2 260.403 8.2C261.123 8.2 261.85 8.28 262.583 8.44C263.316 8.6 263.923 8.82667 264.403 9.12L263.443 11.02C262.936 10.7133 262.423 10.5067 261.903 10.4C261.396 10.28 260.89 10.22 260.383 10.22C259.623 10.22 259.056 10.3333 258.683 10.56C258.323 10.7867 258.143 11.0733 258.143 11.42C258.143 11.74 258.263 11.98 258.503 12.14C258.743 12.3 259.056 12.4267 259.443 12.52C259.83 12.6133 260.256 12.6933 260.723 12.76C261.203 12.8133 261.676 12.9 262.143 13.02C262.61 13.14 263.036 13.3067 263.423 13.52C263.823 13.72 264.143 14.0067 264.383 14.38C264.623 14.7533 264.743 15.24 264.743 15.84C264.743 16.5067 264.543 17.0867 264.143 17.58C263.756 18.0733 263.203 18.46 262.483 18.74C261.763 19.0067 260.903 19.14 259.903 19.14ZM271.916 19.14C270.729 19.14 269.689 18.9067 268.796 18.44C267.916 17.96 267.229 17.3067 266.736 16.48C266.256 15.6533 266.016 14.7133 266.016 13.66C266.016 12.5933 266.249 11.6533 266.716 10.84C267.196 10.0133 267.849 9.36667 268.676 8.9C269.516 8.43333 270.469 8.2 271.536 8.2C272.576 8.2 273.503 8.42667 274.316 8.88C275.129 9.33333 275.769 9.97333 276.236 10.8C276.703 11.6267 276.936 12.6 276.936 13.72C276.936 13.8267 276.929 13.9467 276.916 14.08C276.916 14.2133 276.909 14.34 276.896 14.46H267.996V12.8H275.576L274.596 13.32C274.609 12.7067 274.483 12.1667 274.216 11.7C273.949 11.2333 273.583 10.8667 273.116 10.6C272.663 10.3333 272.136 10.2 271.536 10.2C270.923 10.2 270.383 10.3333 269.916 10.6C269.463 10.8667 269.103 11.24 268.836 11.72C268.583 12.1867 268.456 12.74 268.456 13.38V13.78C268.456 14.42 268.603 14.9867 268.896 15.48C269.189 15.9733 269.603 16.3533 270.136 16.62C270.669 16.8867 271.283 17.02 271.976 17.02C272.576 17.02 273.116 16.9267 273.596 16.74C274.076 16.5533 274.503 16.26 274.876 15.86L276.216 17.4C275.736 17.96 275.129 18.3933 274.396 18.7C273.676 18.9933 272.849 19.14 271.916 19.14ZM283.357 19.14C282.184 19.14 281.277 18.84 280.637 18.24C279.997 17.6267 279.677 16.7267 279.677 15.54V5.96H282.177V15.48C282.177 15.9867 282.304 16.38 282.557 16.66C282.824 16.94 283.191 17.08 283.657 17.08C284.217 17.08 284.684 16.9333 285.057 16.64L285.757 18.42C285.464 18.66 285.104 18.84 284.677 18.96C284.251 19.08 283.811 19.14 283.357 19.14ZM277.917 10.4V8.4H285.037V10.4H277.917ZM296.421 19V7.2H291.781V5H303.661V7.2H299.021V19H296.421ZM309.299 19.14C308.112 19.14 307.072 18.9067 306.179 18.44C305.299 17.96 304.612 17.3067 304.119 16.48C303.639 15.6533 303.399 14.7133 303.399 13.66C303.399 12.5933 303.632 11.6533 304.099 10.84C304.579 10.0133 305.232 9.36667 306.059 8.9C306.899 8.43333 307.852 8.2 308.919 8.2C309.959 8.2 310.885 8.42667 311.699 8.88C312.512 9.33333 313.152 9.97333 313.619 10.8C314.085 11.6267 314.319 12.6 314.319 13.72C314.319 13.8267 314.312 13.9467 314.299 14.08C314.299 14.2133 314.292 14.34 314.279 14.46H305.379V12.8H312.959L311.979 13.32C311.992 12.7067 311.865 12.1667 311.599 11.7C311.332 11.2333 310.965 10.8667 310.499 10.6C310.045 10.3333 309.519 10.2 308.919 10.2C308.305 10.2 307.765 10.3333 307.299 10.6C306.845 10.8667 306.485 11.24 306.219 11.72C305.965 12.1867 305.839 12.74 305.839 13.38V13.78C305.839 14.42 305.985 14.9867 306.279 15.48C306.572 15.9733 306.985 16.3533 307.519 16.62C308.052 16.8867 308.665 17.02 309.359 17.02C309.959 17.02 310.499 16.9267 310.979 16.74C311.459 16.5533 311.885 16.26 312.259 15.86L313.599 17.4C313.119 17.96 312.512 18.3933 311.779 18.7C311.059 18.9933 310.232 19.14 309.299 19.14ZM323.007 19V16.84L322.867 16.38V12.6C322.867 11.8667 322.647 11.3 322.207 10.9C321.767 10.4867 321.1 10.28 320.207 10.28C319.607 10.28 319.014 10.3733 318.427 10.56C317.854 10.7467 317.367 11.0067 316.967 11.34L315.987 9.52C316.56 9.08 317.24 8.75333 318.027 8.54C318.827 8.31333 319.654 8.2 320.507 8.2C322.054 8.2 323.247 8.57333 324.087 9.32C324.94 10.0533 325.367 11.1933 325.367 12.74V19H323.007ZM319.647 19.14C318.847 19.14 318.147 19.0067 317.547 18.74C316.947 18.46 316.48 18.08 316.147 17.6C315.827 17.1067 315.667 16.5533 315.667 15.94C315.667 15.34 315.807 14.8 316.087 14.32C316.38 13.84 316.854 13.46 317.507 13.18C318.16 12.9 319.027 12.76 320.107 12.76H323.207V14.42H320.287C319.434 14.42 318.86 14.56 318.567 14.84C318.274 15.1067 318.127 15.44 318.127 15.84C318.127 16.2933 318.307 16.6533 318.667 16.92C319.027 17.1867 319.527 17.32 320.167 17.32C320.78 17.32 321.327 17.18 321.807 16.9C322.3 16.62 322.654 16.2067 322.867 15.66L323.287 17.16C323.047 17.7867 322.614 18.2733 321.987 18.62C321.374 18.9667 320.594 19.14 319.647 19.14ZM342.056 8.2C342.909 8.2 343.662 8.36667 344.316 8.7C344.982 9.03333 345.502 9.54667 345.876 10.24C346.249 10.92 346.436 11.8 346.436 12.88V19H343.936V13.2C343.936 12.2533 343.729 11.5467 343.316 11.08C342.902 10.6133 342.309 10.38 341.536 10.38C340.989 10.38 340.502 10.5 340.076 10.74C339.662 10.98 339.336 11.3333 339.096 11.8C338.869 12.2667 338.756 12.86 338.756 13.58V19H336.256V13.2C336.256 12.2533 336.049 11.5467 335.636 11.08C335.222 10.6133 334.629 10.38 333.856 10.38C333.309 10.38 332.822 10.5 332.396 10.74C331.982 10.98 331.656 11.3333 331.416 11.8C331.189 12.2667 331.076 12.86 331.076 13.58V19H328.576V8.32H330.956V11.16L330.536 10.32C330.896 9.62667 331.416 9.1 332.096 8.74C332.789 8.38 333.576 8.2 334.456 8.2C335.456 8.2 336.322 8.44667 337.056 8.94C337.802 9.43333 338.296 10.18 338.536 11.18L337.556 10.84C337.902 10.04 338.476 9.4 339.276 8.92C340.076 8.44 341.002 8.2 342.056 8.2Z" fill="black"/>
<path d="M8.7682 19.2C7.70154 19.2 6.7082 19.0267 5.7882 18.68C4.88154 18.32 4.0882 17.82 3.4082 17.18C2.74154 16.5267 2.22154 15.76 1.8482 14.88C1.47487 14 1.2882 13.04 1.2882 12C1.2882 10.96 1.47487 10 1.8482 9.12C2.22154 8.24 2.7482 7.48 3.4282 6.84C4.1082 6.18667 4.90154 5.68667 5.8082 5.34C6.71487 4.98 7.7082 4.8 8.7882 4.8C9.93487 4.8 10.9815 5 11.9282 5.4C12.8749 5.78667 13.6749 6.36667 14.3282 7.14L12.6482 8.72C12.1415 8.17333 11.5749 7.76667 10.9482 7.5C10.3215 7.22 9.64154 7.08 8.9082 7.08C8.17487 7.08 7.50154 7.2 6.8882 7.44C6.2882 7.68 5.76154 8.02 5.3082 8.46C4.8682 8.9 4.52154 9.42 4.2682 10.02C4.0282 10.62 3.9082 11.28 3.9082 12C3.9082 12.72 4.0282 13.38 4.2682 13.98C4.52154 14.58 4.8682 15.1 5.3082 15.54C5.76154 15.98 6.2882 16.32 6.8882 16.56C7.50154 16.8 8.17487 16.92 8.9082 16.92C9.64154 16.92 10.3215 16.7867 10.9482 16.52C11.5749 16.24 12.1415 15.82 12.6482 15.26L14.3282 16.86C13.6749 17.62 12.8749 18.2 11.9282 18.6C10.9815 19 9.9282 19.2 8.7682 19.2ZM16.5795 19V8.32H18.9595V11.26L18.6795 10.4C18.9995 9.68 19.4995 9.13333 20.1795 8.76C20.8728 8.38667 21.7328 8.2 22.7595 8.2V10.58C22.6528 10.5533 22.5528 10.54 22.4595 10.54C22.3661 10.5267 22.2728 10.52 22.1795 10.52C21.2328 10.52 20.4795 10.8 19.9195 11.36C19.3595 11.9067 19.0795 12.7267 19.0795 13.82V19H16.5795ZM29.8026 19.14C28.6159 19.14 27.5759 18.9067 26.6826 18.44C25.8026 17.96 25.1159 17.3067 24.6226 16.48C24.1426 15.6533 23.9026 14.7133 23.9026 13.66C23.9026 12.5933 24.1359 11.6533 24.6026 10.84C25.0826 10.0133 25.7359 9.36667 26.5626 8.9C27.4026 8.43333 28.3559 8.2 29.4226 8.2C30.4626 8.2 31.3892 8.42667 32.2026 8.88C33.0159 9.33333 33.6559 9.97333 34.1226 10.8C34.5892 11.6267 34.8226 12.6 34.8226 13.72C34.8226 13.8267 34.8159 13.9467 34.8026 14.08C34.8026 14.2133 34.7959 14.34 34.7826 14.46H25.8826V12.8H33.4626L32.4826 13.32C32.4959 12.7067 32.3692 12.1667 32.1026 11.7C31.8359 11.2333 31.4692 10.8667 31.0026 10.6C30.5492 10.3333 30.0226 10.2 29.4226 10.2C28.8092 10.2 28.2692 10.3333 27.8026 10.6C27.3492 10.8667 26.9892 11.24 26.7226 11.72C26.4692 12.1867 26.3426 12.74 26.3426 13.38V13.78C26.3426 14.42 26.4892 14.9867 26.7826 15.48C27.0759 15.9733 27.4892 16.3533 28.0226 16.62C28.5559 16.8867 29.1692 17.02 29.8626 17.02C30.4626 17.02 31.0026 16.9267 31.4826 16.74C31.9626 16.5533 32.3892 16.26 32.7626 15.86L34.1026 17.4C33.6226 17.96 33.0159 18.3933 32.2826 18.7C31.5626 18.9933 30.7359 19.14 29.8026 19.14ZM43.511 19V16.84L43.371 16.38V12.6C43.371 11.8667 43.151 11.3 42.711 10.9C42.271 10.4867 41.6043 10.28 40.711 10.28C40.111 10.28 39.5177 10.3733 38.931 10.56C38.3577 10.7467 37.871 11.0067 37.471 11.34L36.491 9.52C37.0643 9.08 37.7443 8.75333 38.531 8.54C39.331 8.31333 40.1577 8.2 41.011 8.2C42.5577 8.2 43.751 8.57333 44.591 9.32C45.4443 10.0533 45.871 11.1933 45.871 12.74V19H43.511ZM40.151 19.14C39.351 19.14 38.651 19.0067 38.051 18.74C37.451 18.46 36.9843 18.08 36.651 17.6C36.331 17.1067 36.171 16.5533 36.171 15.94C36.171 15.34 36.311 14.8 36.591 14.32C36.8843 13.84 37.3577 13.46 38.011 13.18C38.6643 12.9 39.531 12.76 40.611 12.76H43.711V14.42H40.791C39.9377 14.42 39.3643 14.56 39.071 14.84C38.7777 15.1067 38.631 15.44 38.631 15.84C38.631 16.2933 38.811 16.6533 39.171 16.92C39.531 17.1867 40.031 17.32 40.671 17.32C41.2843 17.32 41.831 17.18 42.311 16.9C42.8043 16.62 43.1577 16.2067 43.371 15.66L43.791 17.16C43.551 17.7867 43.1177 18.2733 42.491 18.62C41.8777 18.9667 41.0977 19.14 40.151 19.14ZM53.0995 19.14C51.9261 19.14 51.0195 18.84 50.3795 18.24C49.7395 17.6267 49.4195 16.7267 49.4195 15.54V5.96H51.9195V15.48C51.9195 15.9867 52.0461 16.38 52.2995 16.66C52.5661 16.94 52.9328 17.08 53.3995 17.08C53.9595 17.08 54.4261 16.9333 54.7995 16.64L55.4995 18.42C55.2061 18.66 54.8461 18.84 54.4195 18.96C53.9928 19.08 53.5528 19.14 53.0995 19.14ZM47.6595 10.4V8.4H54.7795V10.4H47.6595ZM62.2245 19.14C61.0378 19.14 59.9978 18.9067 59.1045 18.44C58.2245 17.96 57.5378 17.3067 57.0445 16.48C56.5645 15.6533 56.3245 14.7133 56.3245 13.66C56.3245 12.5933 56.5578 11.6533 57.0245 10.84C57.5045 10.0133 58.1578 9.36667 58.9845 8.9C59.8245 8.43333 60.7778 8.2 61.8445 8.2C62.8845 8.2 63.8111 8.42667 64.6245 8.88C65.4378 9.33333 66.0778 9.97333 66.5445 10.8C67.0111 11.6267 67.2445 12.6 67.2445 13.72C67.2445 13.8267 67.2378 13.9467 67.2245 14.08C67.2245 14.2133 67.2178 14.34 67.2045 14.46H58.3045V12.8H65.8845L64.9045 13.32C64.9178 12.7067 64.7911 12.1667 64.5245 11.7C64.2578 11.2333 63.8911 10.8667 63.4245 10.6C62.9711 10.3333 62.4445 10.2 61.8445 10.2C61.2311 10.2 60.6911 10.3333 60.2245 10.6C59.7711 10.8667 59.4111 11.24 59.1445 11.72C58.8911 12.1867 58.7645 12.74 58.7645 13.38V13.78C58.7645 14.42 58.9111 14.9867 59.2045 15.48C59.4978 15.9733 59.9111 16.3533 60.4445 16.62C60.9778 16.8867 61.5911 17.02 62.2845 17.02C62.8845 17.02 63.4245 16.9267 63.9045 16.74C64.3845 16.5533 64.8111 16.26 65.1845 15.86L66.5245 17.4C66.0445 17.96 65.4378 18.3933 64.7045 18.7C63.9845 18.9933 63.1578 19.14 62.2245 19.14ZM74.1659 19.14C73.1392 19.14 72.2125 18.9133 71.3859 18.46C70.5725 17.9933 69.9325 17.3533 69.4659 16.54C68.9992 15.7267 68.7659 14.7667 68.7659 13.66C68.7659 12.5533 68.9992 11.5933 69.4659 10.78C69.9325 9.96667 70.5725 9.33333 71.3859 8.88C72.2125 8.42667 73.1392 8.2 74.1659 8.2C75.0592 8.2 75.8592 8.4 76.5659 8.8C77.2725 9.18667 77.8325 9.78 78.2459 10.58C78.6592 11.38 78.8659 12.4067 78.8659 13.66C78.8659 14.9 78.6659 15.9267 78.2659 16.74C77.8659 17.54 77.3125 18.14 76.6059 18.54C75.8992 18.94 75.0859 19.14 74.1659 19.14ZM74.4659 17C75.0659 17 75.5992 16.8667 76.0659 16.6C76.5459 16.3333 76.9259 15.9467 77.2059 15.44C77.4992 14.9333 77.6459 14.34 77.6459 13.66C77.6459 12.9667 77.4992 12.3733 77.2059 11.88C76.9259 11.3733 76.5459 10.9867 76.0659 10.72C75.5992 10.4533 75.0659 10.32 74.4659 10.32C73.8659 10.32 73.3259 10.4533 72.8459 10.72C72.3792 10.9867 71.9992 11.3733 71.7059 11.88C71.4259 12.3733 71.2859 12.9667 71.2859 13.66C71.2859 14.34 71.4259 14.9333 71.7059 15.44C71.9992 15.9467 72.3792 16.3333 72.8459 16.6C73.3259 16.8667 73.8659 17 74.4659 17ZM77.7059 19V16.48L77.8059 13.64L77.6059 10.8V4.16H80.0859V19H77.7059ZM91.2637 19L87.3437 8.32H89.7037L93.0637 17.74H91.9437L95.4637 8.32H97.5637L100.984 17.74H99.8837L103.344 8.32H105.564L101.624 19H99.2237L96.1037 10.66H96.8437L93.6637 19H91.2637ZM107.283 19V8.32H109.783V19H107.283ZM108.543 6.56C108.076 6.56 107.689 6.41333 107.383 6.12C107.089 5.82667 106.943 5.47333 106.943 5.06C106.943 4.63333 107.089 4.28 107.383 4C107.689 3.70667 108.076 3.56 108.543 3.56C109.009 3.56 109.389 3.7 109.683 3.98C109.989 4.24667 110.143 4.58667 110.143 5C110.143 5.44 109.996 5.81333 109.703 6.12C109.409 6.41333 109.023 6.56 108.543 6.56ZM117.084 19.14C115.91 19.14 115.004 18.84 114.364 18.24C113.724 17.6267 113.404 16.7267 113.404 15.54V5.96H115.904V15.48C115.904 15.9867 116.03 16.38 116.284 16.66C116.55 16.94 116.917 17.08 117.384 17.08C117.944 17.08 118.41 16.9333 118.784 16.64L119.484 18.42C119.19 18.66 118.83 18.84 118.404 18.96C117.977 19.08 117.537 19.14 117.084 19.14ZM111.644 10.4V8.4H118.764V10.4H111.644ZM127.6 8.2C128.454 8.2 129.214 8.36667 129.88 8.7C130.56 9.03333 131.094 9.54667 131.48 10.24C131.867 10.92 132.06 11.8 132.06 12.88V19H129.56V13.2C129.56 12.2533 129.334 11.5467 128.88 11.08C128.44 10.6133 127.82 10.38 127.02 10.38C126.434 10.38 125.914 10.5 125.46 10.74C125.007 10.98 124.654 11.34 124.4 11.82C124.16 12.2867 124.04 12.88 124.04 13.6V19H121.54V4.16H124.04V11.2L123.5 10.32C123.874 9.64 124.414 9.12 125.12 8.76C125.84 8.38667 126.667 8.2 127.6 8.2Z" fill="black"/>
<path fill-rule="evenodd" clip-rule="evenodd" d="M154.399 4.14593C152.726 3.08425 150.023 2.08032 147.689 4.46071C142.148 10.1114 151.65 21 156 21C160.35 21 169.852 10.1114 164.311 4.46072C161.977 2.08035 159.274 3.08427 157.601 4.14593C156.655 4.74582 155.345 4.74582 154.399 4.14593ZM160.744 5.29891C160.357 5.15178 159.924 5.34638 159.776 5.73358C159.629 6.12078 159.824 6.55395 160.211 6.70109C160.572 6.83816 160.948 7.07039 161.327 7.44544C161.808 7.92308 162.113 8.44658 162.283 8.99774C162.405 9.39356 162.825 9.61548 163.221 9.49343C163.617 9.37137 163.839 8.95154 163.717 8.55572C163.473 7.76568 163.037 7.02899 162.383 6.38024C161.867 5.86843 161.315 5.51581 160.744 5.29891Z" fill="#E20000"/>
</svg>
