<svg width="228" height="225" viewBox="0 0 228 225" fill="none" xmlns="http://www.w3.org/2000/svg">
<path d="M299.91 205.998C299.91 205.998 278.264 190.776 255.289 167.389L265.018 160.638L250.855 162.799C237.616 148.792 224.362 132.249 214.932 114.476L224.661 107.732L212.488 109.608C188.483 59.224 202.425 0 202.425 0C202.425 0 221.363 14.9304 241.517 38.6086L233.665 54.3135L245.212 43.0429C255.843 56.0333 266.51 71.319 274.654 88.04C275.933 90.6623 277.127 93.3343 278.278 96.0346L262.814 106.808L280.396 101.208C299.341 149.503 299.91 205.998 299.91 205.998Z" fill="#008563"/>
<path d="M202.426 0.000488281C205.418 9.05387 208.58 18.0363 211.927 26.9548C215.246 35.8731 218.664 44.7631 222.26 53.5678L227.703 66.7642L233.289 79.8967C237.176 88.5807 241.02 97.2859 245.17 105.842L248.176 112.316C249.185 114.469 250.265 116.587 251.303 118.726L257.621 131.524C262.055 139.938 266.368 148.423 270.995 156.73C273.297 160.894 275.521 165.108 277.888 169.237L285.101 181.56C286.294 183.613 287.439 185.703 288.682 187.735L292.442 193.811C294.95 197.854 297.437 201.919 299.91 205.998C297.181 202.09 294.481 198.167 291.802 194.216L287.773 188.303C286.437 186.328 285.2 184.296 283.907 182.292L276.331 170.147C273.851 166.075 271.506 161.918 269.083 157.803L265.48 151.621C264.272 149.56 263.206 147.428 262.062 145.332L255.311 132.711L248.859 119.934C247.8 117.795 246.698 115.677 245.661 113.524L242.598 107.057C234.532 89.7604 226.957 72.2219 220.234 54.3638C216.873 45.4383 213.668 36.4487 210.612 27.4095C207.706 18.3276 204.799 9.23875 202.426 0.000488281V0.000488281Z" fill="#00AE85"/>
<path d="M1.0395 145.026C13.5182 168.051 39.5841 178.724 51.409 182.533C55.6584 185.831 60.0148 188.986 64.4633 191.992C38.6959 184.161 1.11045 184.679 13.0066 194.706C25.7553 205.458 65.8206 201.905 77.9867 200.541C82.7621 203.355 87.6087 206.034 92.519 208.564C65.4297 205.764 22.3086 217.262 37.5162 224.318C52.5104 231.283 89.6908 217.638 101.43 212.998C107.464 215.876 113.561 218.555 119.694 221.049C92.6255 220.239 47.6782 237.614 64.1435 243.044C80.2393 248.352 116.972 229.463 127.091 223.977C133.707 226.514 140.33 228.838 146.918 230.97C120.02 230.508 73.8008 250.292 90.785 255.153C107.549 259.949 145.148 238.254 153.726 233.109C160.533 235.184 167.277 237.067 173.915 238.765C147.003 240.457 102.965 263.161 120.141 266.793C137.026 270.367 172.472 246.611 181.135 240.563C238.454 254.321 285.704 254.826 286.564 254.833L286.585 250.292C285.768 250.285 242.384 249.816 188.582 237.664C185.192 227.026 171.676 187.451 156.277 180.096C139.996 172.307 162.786 219.934 183.608 236.513C176.295 234.779 168.805 232.825 161.223 230.629C158.153 220.915 144.416 179.982 128.733 172.485C112.338 164.647 135.548 212.963 156.483 229.229C149.796 227.204 143.052 224.993 136.294 222.57C133.139 212.6 119.452 172.023 103.846 164.561C87.7436 156.858 109.858 203.376 130.495 220.438C124.071 218.015 117.654 215.393 111.294 212.557C108.316 203.12 94.5302 161.818 78.7612 154.279C62.8431 146.668 84.2684 192.013 104.692 209.537C97.6426 206.211 90.6785 202.616 83.8636 198.728C80.4738 188.098 66.9576 148.515 51.5584 141.153C36.7842 134.089 54.1591 172.606 73.0549 192.205C66.979 188.346 61.0523 184.232 55.3388 179.84C42.0358 157.256 -7.77937 128.746 1.0395 145.026Z" fill="#136A5F"/>
<path d="M187.168 120.843C189.776 124.56 194.097 127.666 185.093 129.883C176.083 132.107 181.981 113.446 187.168 120.843ZM185.051 171.604C187.659 175.32 191.972 178.419 182.968 180.643C173.965 182.867 179.856 164.199 185.051 171.604ZM199.15 152.957C190.146 155.174 196.044 136.513 201.232 143.911C203.84 147.627 208.16 150.733 199.15 152.957ZM190.856 195.09C195.227 193.008 201.701 192.774 199.988 197.435C198.275 202.097 188.355 199.738 188.355 199.738C185.392 198.878 186.486 197.165 190.856 195.09ZM207.684 175.718C199.832 164.498 232.457 158.557 225.031 169.643C221.307 175.214 215.537 186.932 207.684 175.718ZM227.006 208.471C229.92 205.181 242.313 195.751 242.001 203.049C241.695 210.355 227.419 212.7 227.419 212.7C225.287 212.934 223.979 211.889 227.006 208.471ZM120.191 116.565C120.191 116.565 117.057 120.033 117.924 122.542C118.962 125.562 116.731 127.076 120.092 131.453C125.336 138.289 148.787 149.027 163.568 151.194C178.349 153.362 166.063 157.967 146.84 151.99C127.61 146.014 116.084 137.799 112.943 133.983C112.943 133.983 110.768 139.689 112.616 144.913C116.041 154.627 112.097 159.999 121.328 162.948C132.158 166.409 176.324 178.852 158.644 178.781C140.963 178.717 116.02 167.773 112.417 165.244C110.171 163.659 108.757 170.09 114.293 180.21C116.681 184.573 116.126 189.377 118.273 191.899C123.979 198.636 172.728 203.966 157.883 205.423C143.045 206.887 125.898 202.097 125.898 202.097C125.898 202.097 124.945 205.529 133.971 212.955C136.365 214.931 137.616 218.228 141.29 220.239C154.707 227.573 169.325 213.588 180.098 214.192C190.878 214.796 161.415 228.937 152.234 227.779C152.234 227.779 152.291 230.352 158.558 233.365C160.385 234.253 162.275 236.449 165.117 237.195C176.296 240.137 186.337 226.528 192.164 227.772C197.991 229.016 183.039 240.109 175.855 240.734C175.855 240.734 175.656 248.352 190.345 246.519C205.027 244.692 216.923 233.137 216.148 225.683C215.338 217.859 215.906 213.503 219.005 217.411C219.005 217.411 226.175 228.12 244.36 209.8C258.125 195.943 272.792 178.93 271.613 165.372C271.115 159.672 273.055 154.073 271.172 150.462C267.107 154.982 256.327 171.789 246.655 180.082C225.159 198.515 237.367 176.266 248.88 164.981C258.587 155.458 275.713 147.378 263.639 129.804C261.813 127.14 262.843 122.378 257.443 117.027C257.443 117.027 255.737 126.443 249.476 135.12C243.209 143.797 231.633 148.196 238.71 135.703C245.788 123.21 252.326 113.154 245.056 108.109C236.507 102.182 237.908 95.8434 227.291 93.0578C227.291 93.0578 233.182 104.556 224.157 121.135C215.125 137.714 204.671 148.572 209.596 133.5C213.838 120.502 234.269 91.9777 210.555 84.0896C207.158 82.9597 204.771 78.1273 197.728 77.8574C197.728 77.8574 202.888 82.7535 202.177 89.995C201.473 97.2363 191.837 111.186 192.32 99.7519C192.803 88.3178 193.905 77.3883 182.478 76.5569C171.058 75.7255 163.319 75.2778 158.246 72.1937C153.172 69.1094 153.385 71.3551 152.575 75.164C151.758 78.9801 143.066 84.9352 141.524 87.4722C139.982 90.002 149.718 102.864 156.81 110.76C163.895 118.648 156.256 117.369 146.812 111.221C137.36 105.074 134.646 91.0325 134.646 91.0325C134.646 91.0325 127.298 98.416 126.36 106.418C125.422 114.419 152.212 131.141 158.004 133.55C163.796 135.959 154.856 137.764 140.65 132.213C126.452 126.664 120.191 116.565 120.191 116.565Z" fill="#00AF8A"/>
<path d="M157.492 76.699C157.492 76.699 157.648 77.637 157.933 79.3923C158.231 81.1405 158.686 83.7059 159.403 86.9392C160.107 90.1797 161.052 94.0952 162.246 98.5652C163.483 103.014 164.904 108.045 166.851 113.403C168.777 118.761 170.98 124.546 173.78 130.465C174.434 131.965 175.194 133.443 175.954 134.942C176.722 136.435 177.446 137.977 178.321 139.462C179.166 140.954 180.019 142.461 180.886 143.982C181.767 145.488 182.648 147.009 183.437 148.551C186.727 154.741 189.676 161.456 192.69 168.25C195.681 175.072 198.723 182.008 201.764 188.936C208.039 202.737 214.755 216.381 222.024 228.653C229.237 240.954 237.267 251.692 245.063 260.042C248.922 264.256 252.859 267.731 256.433 270.68C258.267 272.101 259.986 273.423 261.621 274.581C263.298 275.683 264.804 276.742 266.218 277.609C267.661 278.433 268.947 279.172 270.07 279.812C271.193 280.43 272.209 280.863 273.005 281.261C274.604 282.029 275.457 282.441 275.457 282.441C275.457 282.441 274.625 281.979 273.076 281.119C272.309 280.672 271.328 280.188 270.248 279.499C269.168 278.81 267.924 278.007 266.538 277.118C265.167 276.195 263.717 275.079 262.111 273.913C260.548 272.691 258.899 271.305 257.151 269.827C255.488 268.243 253.619 266.679 251.857 264.796C250.968 263.865 250.016 262.955 249.092 261.975C248.183 260.973 247.259 259.95 246.307 258.905C242.59 254.662 238.795 249.866 235.1 244.557C231.426 239.235 227.837 233.436 224.277 227.339C217.178 215.123 210.64 201.507 204.493 187.707C201.395 180.806 198.297 173.906 195.241 167.113C192.157 160.319 189.143 153.625 185.718 147.307C184.873 145.701 183.977 144.181 183.082 142.688C182.201 141.196 181.319 139.718 180.452 138.261C179.55 136.826 178.797 135.326 178.001 133.876C177.212 132.42 176.43 130.984 175.741 129.52C172.82 123.75 170.482 118.086 168.436 112.82C166.389 107.547 164.747 102.623 163.312 98.2524C161.926 93.8607 160.818 90.002 159.965 86.8041C159.134 83.6063 158.48 81.0837 158.089 79.3568C157.698 77.6228 157.492 76.699 157.492 76.699Z" fill="#00A285"/>
<path d="M181.803 143.022C181.803 143.022 182.62 142.845 183.928 142.198C185.242 141.572 187.019 140.45 188.923 138.815C189.883 138.005 190.863 137.067 191.844 136.015C192.81 134.957 193.813 133.812 194.743 132.554C196.641 130.053 198.403 127.303 200.137 124.46C200.969 123.032 201.779 121.59 202.532 120.14C203.314 118.711 203.975 117.24 204.614 115.826C205.879 112.984 206.852 110.234 207.499 107.832C208.167 105.43 208.523 103.383 208.693 101.94C208.8 101.23 208.807 100.654 208.842 100.271C208.878 99.8869 208.892 99.6807 208.892 99.6807C208.892 99.6807 208.658 100.469 208.253 101.848C208.039 102.537 207.784 103.362 207.45 104.3C207.13 105.238 206.718 106.283 206.277 107.419C205.367 109.679 204.195 112.266 202.823 114.974C201.438 117.681 199.881 120.531 198.204 123.316C197.387 124.716 196.534 126.109 195.682 127.452C194.814 128.809 193.983 130.167 193.138 131.403C191.446 133.905 189.691 136.122 188.035 137.884C186.379 139.647 184.852 140.99 183.693 141.814C182.549 142.667 181.803 143.022 181.803 143.022Z" fill="#00A285"/>
<path d="M172.537 125.235C172.537 125.235 171.89 125.406 170.76 125.491C170.199 125.555 169.509 125.541 168.735 125.555C167.946 125.505 167.072 125.484 166.127 125.342C165.174 125.256 164.158 125.001 163.085 124.816C162.026 124.524 160.903 124.283 159.774 123.892C159.205 123.7 158.637 123.508 158.054 123.316C157.471 123.11 156.903 122.847 156.32 122.627C155.14 122.201 153.989 121.639 152.838 121.078C151.658 120.573 150.549 119.934 149.434 119.337C148.318 118.747 147.231 118.129 146.208 117.489C145.177 116.85 144.132 116.309 143.223 115.67C142.299 115.052 141.404 114.49 140.579 113.972C139.741 113.467 139.03 112.927 138.362 112.486C137.701 112.046 137.119 111.662 136.643 111.342C135.669 110.724 135.115 110.369 135.115 110.369C135.115 110.369 135.57 110.845 136.358 111.683C136.763 112.088 137.254 112.586 137.822 113.154C138.398 113.716 139.023 114.384 139.798 115.002C140.551 115.642 141.368 116.331 142.257 117.041C143.116 117.788 144.111 118.456 145.135 119.159C146.158 119.863 147.21 120.616 148.368 121.227C149.505 121.867 150.649 122.563 151.871 123.103C153.079 123.672 154.287 124.226 155.538 124.652C156.76 125.15 158.025 125.477 159.241 125.796C160.442 126.152 161.678 126.273 162.808 126.464C163.959 126.571 165.047 126.678 166.056 126.621C167.065 126.649 167.989 126.507 168.792 126.408C169.602 126.265 170.291 126.116 170.852 125.931C171.407 125.775 171.826 125.576 172.11 125.448C172.394 125.32 172.537 125.235 172.537 125.235Z" fill="#00A285"/>
<path d="M180.389 140.656C180.389 140.656 179.778 140.862 178.705 141.125C178.165 141.26 177.518 141.395 176.765 141.537C176.018 141.693 175.159 141.8 174.235 141.942C173.304 142.049 172.302 142.177 171.229 142.248C170.17 142.361 169.033 142.347 167.875 142.418C166.709 142.439 165.508 142.404 164.286 142.397C163.064 142.319 161.82 142.333 160.584 142.177C159.347 142.056 158.104 142.013 156.888 141.807C155.68 141.608 154.465 141.558 153.314 141.317C152.163 141.103 151.04 140.94 149.974 140.769C148.922 140.535 147.92 140.343 146.989 140.165C145.12 139.846 143.599 139.412 142.505 139.213C141.404 139.007 140.778 138.886 140.778 138.886C140.778 138.886 141.347 139.171 142.363 139.64C142.868 139.867 143.493 140.144 144.203 140.464C144.914 140.791 145.731 141.118 146.641 141.409C147.551 141.729 148.531 142.07 149.583 142.397C150.642 142.688 151.772 142.987 152.944 143.264C154.11 143.569 155.346 143.747 156.59 143.96C157.841 144.195 159.127 144.273 160.413 144.415C161.692 144.55 162.993 144.514 164.258 144.564C165.53 144.564 166.78 144.479 167.988 144.387C169.196 144.266 170.362 144.131 171.449 143.903C172.544 143.733 173.567 143.456 174.498 143.207C176.36 142.667 177.859 142.056 178.861 141.544C179.863 141.032 180.389 140.656 180.389 140.656Z" fill="#00A285"/>
<path d="M189.883 158.656C189.883 158.656 189.627 158.748 189.159 158.919C188.69 159.097 187.979 159.296 187.098 159.594C186.202 159.857 185.115 160.191 183.857 160.489C182.592 160.802 181.171 161.115 179.608 161.413C178.058 161.769 176.332 161.939 174.548 162.252C172.729 162.401 170.838 162.714 168.856 162.771C167.868 162.827 166.866 162.877 165.85 162.934C164.834 162.927 163.803 162.927 162.766 162.92C160.691 162.991 158.587 162.756 156.484 162.629C154.38 162.515 152.305 162.117 150.237 161.882C148.198 161.527 146.201 161.094 144.254 160.717C142.328 160.255 140.495 159.693 138.732 159.232C138.291 159.111 137.858 158.997 137.432 158.876C137.012 158.734 136.607 158.585 136.202 158.443C135.392 158.159 134.61 157.881 133.857 157.619C132.365 157.064 130.937 156.688 129.764 156.126C128.57 155.615 127.526 155.174 126.666 154.804C124.946 154.08 123.937 153.689 123.937 153.689C123.937 153.689 124.846 154.25 126.467 155.195C127.284 155.664 128.279 156.233 129.416 156.887C130.524 157.597 131.91 158.144 133.374 158.819C134.866 159.438 136.416 160.305 138.206 160.831C139.969 161.406 141.809 162.11 143.764 162.636C145.746 163.076 147.771 163.659 149.875 164.028C151.993 164.291 154.124 164.732 156.292 164.867C158.467 164.974 160.627 165.187 162.766 165.094C163.832 165.08 164.891 165.066 165.942 165.023C166.98 164.924 168.01 164.831 169.026 164.739C171.052 164.625 172.978 164.17 174.818 163.908C176.63 163.488 178.357 163.161 179.906 162.664C180.681 162.429 181.434 162.23 182.131 162.003C182.827 161.747 183.488 161.506 184.106 161.285C185.336 160.831 186.387 160.369 187.247 159.999C188.967 159.217 189.883 158.656 189.883 158.656Z" fill="#00A285"/>
<path d="M199.989 181.297C199.989 181.297 199.733 181.467 199.228 181.751C198.738 182.05 197.963 182.412 197.018 182.917C196.037 183.365 194.879 183.954 193.479 184.487C192.108 185.077 190.495 185.575 188.775 186.193C187.894 186.449 186.977 186.712 186.025 186.982C185.556 187.117 185.072 187.259 184.582 187.401C184.085 187.515 183.58 187.621 183.068 187.742C182.052 187.962 181.001 188.197 179.928 188.431C178.84 188.609 177.731 188.787 176.609 188.964C176.04 189.057 175.479 189.149 174.903 189.241C174.328 189.291 173.745 189.341 173.162 189.398C171.99 189.512 170.81 189.625 169.616 189.739C167.221 189.81 164.791 189.952 162.361 189.895C161.138 189.853 159.923 189.81 158.715 189.767C157.5 189.725 156.292 189.696 155.098 189.526C152.725 189.213 150.351 189.135 148.091 188.716C145.831 188.332 143.65 187.962 141.575 187.607C139.528 187.124 137.588 186.669 135.797 186.25C134.902 186.044 134.035 185.845 133.218 185.66C132.407 185.454 131.647 185.205 130.929 184.999C129.487 184.58 128.229 184.21 127.199 183.905C125.124 183.308 123.923 182.988 123.923 182.988C123.923 182.988 125.045 183.492 127.05 184.317C128.051 184.729 129.267 185.226 130.666 185.795C131.363 186.079 132.102 186.406 132.898 186.697C133.708 186.946 134.554 187.216 135.442 187.493C137.219 188.048 139.144 188.659 141.198 189.249C143.287 189.696 145.49 190.179 147.771 190.67C148.908 190.947 150.088 191.068 151.282 191.231C152.476 191.38 153.684 191.537 154.899 191.693C156.114 191.878 157.351 191.921 158.594 191.97C159.838 192.027 161.082 192.091 162.332 192.148C164.827 192.176 167.328 191.999 169.78 191.906C171.002 191.757 172.21 191.615 173.411 191.473C174.008 191.395 174.605 191.324 175.195 191.253C175.777 191.139 176.36 191.025 176.936 190.919C178.08 190.684 179.21 190.457 180.318 190.236C181.399 189.938 182.464 189.646 183.502 189.355C185.584 188.844 187.453 188.026 189.215 187.401C190.928 186.655 192.506 185.987 193.827 185.241C195.185 184.566 196.3 183.848 197.231 183.301C199.058 182.114 199.989 181.297 199.989 181.297Z" fill="#00A285"/>
<path d="M208.629 200.221C208.629 200.221 207.591 200.513 205.786 201.017C203.989 201.536 201.395 202.197 198.296 202.964C195.191 203.711 191.552 204.556 187.658 205.096C186.685 205.21 185.69 205.338 184.695 205.373C184.197 205.416 183.7 205.43 183.209 205.409L181.632 205.416C180.609 205.388 179.472 205.501 178.342 205.615C177.254 205.771 176.167 205.906 175.108 206.12C172.976 206.525 170.88 207.015 168.826 207.512C166.766 207.988 164.769 208.55 162.829 209.033C158.956 210.035 155.346 210.945 152.226 211.577C151.444 211.748 150.691 211.883 149.981 211.996C149.263 212.11 148.587 212.266 147.948 212.33C147.302 212.401 146.704 212.48 146.15 212.544C145.589 212.572 145.077 212.593 144.615 212.615C143.684 212.686 142.959 212.615 142.455 212.6C141.95 212.579 141.68 212.565 141.68 212.565C141.68 212.565 141.943 212.622 142.433 212.721C142.931 212.799 143.656 213.027 144.601 213.055C145.07 213.091 145.596 213.126 146.164 213.162H148.012C149.327 213.133 150.819 213.07 152.425 212.856C155.644 212.501 159.354 211.812 163.284 210.966C167.22 210.142 171.37 209.09 175.521 208.33C176.551 208.109 177.588 207.967 178.612 207.804C179.6 207.697 180.573 207.569 181.66 207.583C182.584 207.534 183.835 207.605 184.844 207.455C185.917 207.377 186.94 207.207 187.957 207.05C191.979 206.326 195.596 205.231 198.652 204.201C201.714 203.178 204.194 202.133 205.929 201.429C207.662 200.697 208.629 200.221 208.629 200.221Z" fill="#00A285"/>
<path d="M210.2 205.87C210.2 205.87 207.449 207.469 203.456 210.02C201.459 211.285 199.135 212.784 196.669 214.405C194.203 216.025 191.574 217.752 188.937 219.486C186.308 221.205 183.679 222.925 181.213 224.531C179.955 225.299 178.782 226.116 177.624 226.805C176.466 227.487 175.407 228.212 174.384 228.781C173.353 229.342 172.451 229.953 171.591 230.365C170.745 230.792 170.021 231.225 169.395 231.502C168.123 232.057 167.398 232.369 167.398 232.369C167.398 232.369 168.18 232.206 169.544 231.922C170.227 231.758 171.015 231.467 171.946 231.154C172.884 230.863 173.865 230.394 174.974 229.925C176.082 229.477 177.226 228.873 178.449 228.269C179.685 227.665 180.936 226.954 182.236 226.229C184.83 224.773 187.516 223.081 190.174 221.362C192.803 219.592 195.418 217.801 197.799 216.025C200.187 214.27 202.376 212.571 204.209 211.065C207.904 208.073 210.2 205.87 210.2 205.87Z" fill="#00A285"/>
<path d="M213.292 209.772C213.292 209.772 213.022 210.376 212.552 211.435C212.311 211.961 212.019 212.6 211.686 213.332C211.352 214.057 210.961 214.867 210.541 215.763C209.66 217.518 208.665 219.572 207.464 221.689C206.896 222.77 206.228 223.828 205.574 224.923C204.956 226.038 204.181 227.076 203.478 228.156C202.753 229.229 201.964 230.245 201.211 231.261C200.365 232.192 199.633 233.216 198.802 234.083C197.928 234.9 197.189 235.824 196.343 236.527C195.49 237.217 194.737 237.963 193.963 238.538C193.166 239.079 192.442 239.597 191.788 240.059C191.141 240.514 190.502 240.784 190.004 241.082C188.995 241.651 188.419 241.978 188.419 241.978C188.419 241.978 189.052 241.821 190.182 241.495C190.729 241.303 191.454 241.175 192.186 240.827C192.925 240.478 193.763 240.081 194.673 239.618C195.561 239.135 196.443 238.482 197.409 237.828C198.375 237.167 199.249 236.307 200.209 235.468C201.133 234.602 202 233.621 202.895 232.633C203.705 231.588 204.558 230.537 205.325 229.435C206.043 228.291 206.825 227.197 207.443 226.031C208.111 224.887 208.694 223.729 209.22 222.592C209.788 221.476 210.222 220.339 210.655 219.273C211.089 218.214 211.416 217.177 211.743 216.239C212.965 212.43 213.292 209.772 213.292 209.772Z" fill="#00A285"/>
<path d="M212.459 208.109C212.459 208.109 216.204 205.842 221.825 202.431C224.639 200.747 227.916 198.786 231.483 196.824C233.267 195.844 235.136 194.87 237.047 193.968C237.992 193.499 238.973 193.115 239.954 192.717L243.017 191.679C245.184 190.862 247.188 189.817 249.078 188.659C250.975 187.508 252.667 186.129 254.273 184.786C255.836 183.386 257.279 181.965 258.508 180.494C259.78 179.058 260.846 177.595 261.777 176.209C262.708 174.83 263.483 173.508 264.079 172.3C264.726 171.121 265.167 170.026 265.572 169.152C265.963 168.271 266.169 167.539 266.361 167.063C266.531 166.573 266.624 166.317 266.624 166.317C266.624 166.317 266.098 167.276 265.174 168.96C264.677 169.778 264.122 170.794 263.355 171.874C262.637 172.983 261.727 174.169 260.732 175.448C259.716 176.713 258.572 178.035 257.272 179.357C256.007 180.7 254.522 181.972 252.994 183.265C249.874 185.76 246.2 188.119 242.299 189.547L239.165 190.656C238.12 191.089 237.083 191.516 236.109 192.013C234.119 192.958 232.286 194.06 230.502 195.112C226.956 197.243 223.78 199.425 221.115 201.358C218.436 203.284 216.297 205.011 214.783 206.19C213.284 207.391 212.459 208.109 212.459 208.109Z" fill="#00A285"/>
<path d="M259.518 137.579C259.518 137.579 258.864 138.638 257.677 140.443C256.505 142.262 254.728 144.799 252.532 147.762C251.417 149.24 250.18 150.804 248.844 152.438C247.487 154.044 246.023 155.714 244.424 157.349C242.854 159.004 241.084 160.568 239.236 162.046C238.305 162.813 237.36 163.396 236.302 164.164C235.292 164.881 234.276 165.521 233.274 166.402C231.256 168.051 229.551 169.898 227.923 171.781C226.296 173.65 224.896 175.619 223.503 177.481C222.117 179.343 220.824 181.169 219.523 182.825C218.237 184.495 216.958 186.008 215.715 187.351C214.45 188.68 213.263 189.874 212.119 190.826C211.017 191.85 209.916 192.553 209.063 193.214C207.265 194.401 206.213 195.069 206.213 195.069C206.213 195.069 206.49 194.934 207.016 194.692C207.535 194.429 208.345 194.124 209.291 193.591C210.214 193.015 211.415 192.411 212.63 191.494C213.902 190.642 215.246 189.547 216.624 188.268C218.003 186.989 219.431 185.525 220.824 183.891C222.245 182.27 223.645 180.508 225.081 178.682C226.509 176.87 228.001 175.001 229.572 173.196C231.142 171.412 232.841 169.628 234.674 168.164C235.52 167.383 236.593 166.686 237.581 165.961C238.512 165.265 239.656 164.533 240.587 163.744C241.553 162.948 242.505 162.152 243.358 161.286C244.246 160.447 245.071 159.58 245.867 158.706C247.473 156.979 248.865 155.181 250.166 153.468C251.445 151.749 252.582 150.065 253.591 148.494C257.578 142.169 259.518 137.579 259.518 137.579Z" fill="#00A285"/>
<path d="M239.343 108.18C239.343 108.18 239.166 109.409 238.675 111.513C238.213 113.616 237.347 116.58 236.082 120.026C235.449 121.753 234.667 123.579 233.808 125.498C233.338 126.436 232.862 127.402 232.372 128.383C231.839 129.35 231.292 130.33 230.738 131.332C229.579 133.294 228.272 135.255 226.865 137.188C225.443 139.092 223.88 141.018 222.331 142.951C219.311 146.867 216.29 150.775 213.455 154.449C212.034 156.261 210.655 158.009 209.305 159.637C207.948 161.25 206.633 162.742 205.361 164.064C204.075 165.357 202.86 166.53 201.701 167.454C200.55 168.399 199.456 169.095 198.525 169.614C198.041 169.856 197.615 170.069 197.245 170.261C196.862 170.431 196.521 170.531 196.251 170.637C195.704 170.829 195.412 170.936 195.412 170.936C195.412 170.936 195.718 170.872 196.286 170.751C196.57 170.687 196.933 170.63 197.338 170.509C197.736 170.367 198.198 170.197 198.71 170.012C199.711 169.578 200.913 168.974 202.192 168.136C203.485 167.304 204.849 166.246 206.256 164.995C206.946 164.355 207.656 163.687 208.395 162.998C209.099 162.273 209.838 161.534 210.563 160.745C212.02 159.175 213.519 157.491 214.997 155.693C216.489 153.902 218.017 152.047 219.524 150.128C221.03 148.224 222.558 146.284 224.093 144.351C225.614 142.404 227.149 140.478 228.62 138.46C230.07 136.456 231.32 134.352 232.464 132.299C233.019 131.261 233.53 130.217 234.028 129.207C234.476 128.163 234.916 127.154 235.342 126.159C236.131 124.162 236.792 122.236 237.304 120.431C238.356 116.828 238.825 113.737 239.109 111.584C239.365 109.423 239.343 108.18 239.343 108.18Z" fill="#00A285"/>
<path d="M170.703 120.971C170.703 120.971 172.33 119.415 174.185 116.615C175.13 115.229 176.111 113.531 177.049 111.655C177.483 110.703 177.994 109.736 178.378 108.706C178.797 107.682 179.195 106.638 179.543 105.572C179.913 104.506 180.19 103.419 180.474 102.353C180.801 101.301 180.943 100.214 181.157 99.1833C181.384 98.16 181.455 97.1367 181.569 96.1843C181.704 95.2322 181.739 94.3226 181.746 93.484C181.832 91.807 181.732 90.4069 181.64 89.4334C181.555 88.4599 181.483 87.9126 181.483 87.9126C181.483 87.9126 181.363 88.4599 181.192 89.4192C181.114 89.8953 181.014 90.4709 180.908 91.1318C180.773 91.7857 180.624 92.5246 180.467 93.3348C180.318 94.1377 180.133 95.0048 179.913 95.9144C179.693 96.8239 179.494 97.7833 179.216 98.7639C178.691 100.725 178.129 102.815 177.412 104.861C176.779 106.936 175.969 108.947 175.244 110.852C174.477 112.735 173.738 114.49 173.055 115.99C171.712 118.981 170.703 120.971 170.703 120.971Z" fill="#00A285"/>
</svg>
