<svg width="208" height="188" viewBox="0 0 208 188" fill="none" xmlns="http://www.w3.org/2000/svg">
<path d="M40.3782 56.7422C37.977 59.6584 36.4389 63.8205 32.6527 57.0832C28.8596 50.346 45.1666 50.9236 40.3782 56.7422ZM-0.873173 66.3399C-3.27434 69.2631 -4.80558 73.4251 -8.59867 66.681C-12.3918 59.9437 3.91531 60.5215 -0.873173 66.3399ZM17.2504 73.5155C13.4572 66.7784 29.7643 67.356 24.9759 73.1746C22.5748 76.0977 21.0437 80.2528 17.2504 73.5155ZM-18.4469 76.2369C-15.8022 79.2783 -14.1736 84.4288 -18.2937 84.0947C-22.4211 83.7536 -22.7342 75.2626 -22.7342 75.2626C-22.7064 72.6873 -21.0847 73.1884 -18.4469 76.2369ZM0.866859 85.438C8.12599 76.6336 20.1667 101.522 9.60845 98.0215C4.305 96.2676 -6.39945 94.2491 0.866859 85.438ZM-21.1474 108.253C-17.8554 109.86 -7.51977 117.718 -13.4566 119.096C-19.3865 120.474 -24.4534 109.533 -24.4534 109.533C-25.1145 107.87 -24.5646 106.582 -21.1474 108.253ZM28.9013 1.98153C28.9013 1.98153 25.4213 0.23465 23.5909 1.48743C21.3987 2.99779 19.6863 1.54322 16.9164 5.21806C12.5943 10.953 9.19086 32.1806 10.743 44.5414C12.2881 56.8952 5.85011 48.0563 6.37209 31.2758C6.89409 14.5025 10.9239 3.40837 13.2901 0.0328684C13.2901 0.0328684 8.22337 -0.44035 4.43729 2.20436C-2.59934 7.11811 -7.79839 5.1484 -8.11159 13.2218C-8.48041 22.6942 -8.63358 60.9461 -12.5172 46.7268C-16.4007 32.5079 -13.1645 10.0343 -11.9326 6.57507C-11.1669 4.41761 -16.6444 4.71694 -23.5415 11.4192C-26.5205 14.3076 -30.4945 14.934 -32.0466 17.2099C-36.1876 23.2999 -29.6105 63.6464 -34.093 52.0513C-38.5681 40.449 -38.5402 25.6105 -38.5402 25.6105C-38.5402 25.6105 -41.5121 25.6105 -45.4723 34.5123C-46.5163 36.8786 -48.8895 38.6186 -49.683 42.015C-52.5923 54.4246 -38.1017 63.0548 -36.1876 71.8453C-34.2737 80.6425 -52.1956 60.1177 -53.3092 52.4896C-53.3092 52.4896 -55.3623 53.1092 -56.3924 58.8093C-56.6917 60.4797 -58.0349 62.4842 -58.0071 64.9339C-57.8819 74.5665 -44.7067 79.6055 -44.4144 84.5609C-44.1151 89.5234 -56.3576 79.9814 -58.4526 74.3507C-58.4526 74.3507 -64.619 75.8819 -59.8793 87.2754C-55.1396 98.6687 -43.2103 105.649 -37.3918 103.367C-31.2881 100.972 -27.6619 100.464 -30.1116 103.819C-30.1116 103.819 -37.1204 111.962 -18.3495 122.493C-4.15129 130.462 12.7822 138.458 23.41 134.491C27.8782 132.828 32.8129 133.134 35.2905 130.824C30.7526 128.561 14.8493 123.648 6.03101 117.718C-13.5612 104.55 7.03323 109.408 18.6632 116.145C28.4699 121.817 38.7774 133.781 50.2057 120.168C51.9387 118.108 55.9964 117.871 59.0934 112.345C59.0934 112.345 51.1523 113.076 42.7864 109.972C34.4206 106.874 28.3028 98.5434 39.9188 101.453C51.5279 104.355 61.0631 107.369 63.499 100.409C66.3596 92.2169 71.7604 91.9316 71.6351 82.7793C71.6351 82.7793 63.7078 90.0801 48.3753 86.5167C33.0495 82.9531 22.004 76.9747 35.207 77.5732C46.5935 78.0882 74.0503 88.1453 75.1082 67.3421C75.2614 64.3633 78.6091 61.3635 77.2656 55.6495C77.2656 55.6495 74.4749 60.8834 68.5032 61.9274C62.5316 62.9714 49.1756 58.3361 58.467 56.1785C67.7655 54.0208 76.7854 52.4757 74.9133 43.1078C73.0341 33.7466 71.67 27.4339 73.0202 22.6733C74.3634 17.9128 72.6165 18.5809 69.3663 18.7759C66.123 18.9708 59.4066 13.3124 57.0263 12.6372C54.6459 11.962 46.4821 22.6456 41.7215 30.0997C36.9609 37.5538 36.2857 31.1367 39.1185 22.1722C41.9512 13.2148 52.6277 7.90453 52.6277 7.90453C52.6277 7.90453 45.0622 3.65208 38.4225 4.67518C31.7897 5.70514 24.3218 30.9487 23.6744 36.1409C23.0271 41.326 19.589 34.5471 20.8835 21.9008C22.1781 9.2547 28.9013 1.98153 28.9013 1.98153Z" fill="#008563"/>
<path d="M69.2271 23.0703C69.2271 23.0703 68.5102 23.3974 67.167 24.0167C65.8306 24.6502 63.8679 25.5897 61.4318 26.8843C58.9822 28.1718 56.045 29.8004 52.7251 31.7561C49.4259 33.7467 45.7025 36.0017 41.8327 38.7649C37.9561 41.5001 33.801 44.5554 29.6669 48.126C28.609 48.9889 27.5859 49.9217 26.5558 50.8681C25.5258 51.8217 24.4469 52.7402 23.4447 53.7774C22.4426 54.7865 21.4194 55.8096 20.3892 56.8467C19.3731 57.8907 18.35 58.9347 17.2922 59.916C13.0468 63.9318 8.3139 67.8016 3.52543 71.734C-1.29078 75.6593 -6.18365 79.6404 -11.0765 83.6284C-20.7646 91.7438 -30.2301 100.179 -38.4706 108.754C-46.746 117.287 -53.5806 126.126 -58.5569 134.241C-61.0833 138.285 -62.9904 142.224 -64.5702 145.746C-65.301 147.541 -65.983 149.219 -66.5538 150.785C-67.0619 152.378 -67.5769 153.826 -67.9528 155.155C-68.2938 156.499 -68.6 157.696 -68.8716 158.733C-69.115 159.784 -69.2334 160.688 -69.3796 161.419C-69.644 162.874 -69.7763 163.647 -69.7763 163.647C-69.7763 163.647 -69.5952 162.881 -69.2473 161.447C-69.0595 160.73 -68.8855 159.832 -68.5791 158.809C-68.266 157.786 -67.8971 156.617 -67.4866 155.301C-67.0549 153.993 -66.4773 152.58 -65.9067 151.028C-65.2731 149.504 -64.5216 147.868 -63.7282 146.135C-62.8234 144.451 -61.9811 142.593 -60.8607 140.762C-60.3109 139.844 -59.7958 138.876 -59.2112 137.916C-58.6056 136.962 -57.9931 135.988 -57.3669 134.993C-54.7847 131.067 -51.778 126.947 -48.3328 122.799C-44.8808 118.658 -41.0181 114.482 -36.9116 110.264C-28.6781 101.843 -19.1986 93.5603 -9.48265 85.5493C-4.62469 81.5195 0.226425 77.4968 5.00805 73.5296C9.77548 69.5346 14.4803 65.6301 18.7955 61.4681C19.8951 60.431 20.9182 59.3732 21.9206 58.3222C22.9158 57.2782 23.9111 56.2412 24.8922 55.2181C25.8459 54.1809 26.883 53.2414 27.8712 52.2811C28.8596 51.3204 29.8409 50.367 30.864 49.49C34.845 45.857 38.8818 42.725 42.654 39.8992C46.4334 37.0875 50.0246 34.6724 53.2123 32.5427C56.4347 30.4547 59.2813 28.7008 61.6616 27.3087C64.0488 25.9238 65.9281 24.8381 67.2295 24.142C68.5311 23.4391 69.2271 23.0703 69.2271 23.0703Z" fill="#00AE85"/>
<path d="M21.3638 57.3616C21.3638 57.3616 21.6908 57.9809 22.4981 58.8928C23.2987 59.8045 24.5931 60.9876 26.3331 62.15C27.1961 62.7417 28.1706 63.3193 29.2354 63.876C30.3003 64.4189 31.4417 64.9618 32.6597 65.4282C35.0888 66.3956 37.6917 67.2029 40.3575 67.9616C41.6936 68.3164 43.0299 68.6436 44.3594 68.9289C45.6887 69.2353 47.0109 69.4371 48.2916 69.6389C50.8598 70.0147 53.2819 70.1887 55.3628 70.1747C57.4369 70.1747 59.1631 70.0008 60.3532 69.8199C60.9517 69.7503 61.4111 69.625 61.7313 69.5694C62.0445 69.5067 62.2115 69.4788 62.2115 69.4788C62.2115 69.4788 61.5294 69.4648 60.3324 69.4509C59.7337 69.4301 59.0099 69.4022 58.1816 69.3465C57.3604 69.3048 56.4277 69.2004 55.4186 69.103C53.4003 68.8733 51.0618 68.5113 48.5769 68.0102C46.0924 67.4953 43.4615 66.8827 40.8516 66.1519C39.543 65.8108 38.2346 65.435 36.9609 65.0523C35.6803 64.6556 34.4066 64.2936 33.2235 63.8831C30.8362 63.0826 28.6647 62.1709 26.883 61.2313C25.0942 60.2917 23.6814 59.366 22.7559 58.6214C21.8161 57.8906 21.3638 57.3616 21.3638 57.3616Z" fill="#00AE85"/>
<path d="M33.5854 45.9613C33.5854 45.9613 33.3069 45.4811 32.9867 44.5971C32.8129 44.1586 32.6667 43.6019 32.4856 42.9755C32.3535 42.3352 32.1726 41.6253 32.075 40.8319C31.9359 40.0523 31.9149 39.1824 31.8245 38.2775C31.8245 37.3588 31.7618 36.4054 31.8315 35.41C31.8522 34.9159 31.8801 34.4078 31.908 33.8998C31.9428 33.3847 32.0333 32.8697 32.075 32.3547C32.1586 31.3107 32.3465 30.2597 32.5483 29.2087C32.6876 28.1579 32.952 27.1139 33.1887 26.0908C33.4113 25.0607 33.6619 24.0514 33.9472 23.0841C34.2327 22.1166 34.4345 21.1562 34.7477 20.2862C35.033 19.4023 35.2905 18.5601 35.5202 17.7807C35.7429 16.9941 36.0145 16.2982 36.2231 15.6718C36.4319 15.0384 36.6128 14.4887 36.759 14.0362C37.0376 13.1175 37.1976 12.5886 37.1976 12.5886C37.1976 12.5886 36.9191 13.0548 36.4249 13.883C36.1815 14.3006 35.896 14.8017 35.562 15.3863C35.2417 15.971 34.845 16.6182 34.5248 17.3769C34.1769 18.1286 33.801 18.9429 33.4252 19.8128C33.0216 20.6689 32.7085 21.6225 32.3674 22.5969C32.0333 23.5782 31.6645 24.5875 31.4278 25.6523C31.1632 26.7102 30.864 27.7821 30.704 28.8817C30.5159 29.9813 30.342 31.0811 30.2725 32.1807C30.1401 33.2734 30.168 34.3592 30.182 35.4032C30.161 36.454 30.342 37.4702 30.4326 38.4167C30.6135 39.3703 30.7666 40.2611 31.0311 41.0686C31.2399 41.8829 31.5599 42.5926 31.8106 43.219C32.1098 43.8316 32.3882 44.3535 32.6527 44.7643C32.9102 45.1749 33.1608 45.4672 33.3208 45.669C33.4879 45.8708 33.5854 45.9613 33.5854 45.9613Z" fill="#00AE85"/>
<path d="M22.9506 55.7051C22.9506 55.7051 22.6513 55.2597 22.1989 54.4592C21.9761 54.0555 21.7187 53.5614 21.4332 52.9906C21.1411 52.42 20.8697 51.7589 20.5424 51.0488C20.2501 50.318 19.9301 49.5455 19.6307 48.7034C19.3037 47.8752 19.067 46.9634 18.7538 46.0447C18.4683 45.1121 18.2318 44.1376 17.9672 43.1564C17.7584 42.1542 17.4731 41.1588 17.3201 40.1357C17.139 39.1126 16.8955 38.1034 16.7911 37.0803C16.6867 36.0642 16.45 35.076 16.3944 34.1015C16.3109 33.1271 16.1856 32.1875 16.0882 31.2966C16.0394 30.3989 15.9768 29.5497 15.9071 28.7633C15.7471 27.1903 15.761 25.8749 15.6704 24.9491C15.5939 24.0166 15.5522 23.4875 15.5522 23.4875C15.5522 23.4875 15.4479 24.0095 15.3018 24.9284C15.2321 25.3878 15.1416 25.9515 15.0511 26.5918C14.9468 27.232 14.8631 27.9628 14.8284 28.7633C14.7798 29.5567 14.724 30.4266 14.6891 31.3453C14.6961 32.2641 14.7031 33.2315 14.7449 34.2338C14.7589 35.2428 14.891 36.273 14.9954 37.324C15.086 38.3748 15.3156 39.4328 15.4827 40.4907C15.6567 41.5555 15.9768 42.5857 16.2203 43.6156C16.5058 44.6387 16.8537 45.6271 17.1948 46.5737C17.5636 47.5133 17.9256 48.425 18.3501 49.2463C18.7329 50.0883 19.1852 50.847 19.589 51.536C20.438 52.9141 21.2593 53.986 21.8998 54.675C22.533 55.3709 22.9506 55.7051 22.9506 55.7051Z" fill="#00AE85"/>
<path d="M10.6038 67.3421C10.6038 67.3421 10.4784 67.1542 10.2348 66.8131C9.98427 66.479 9.66406 65.9502 9.23244 65.3099C8.82203 64.6486 8.31389 63.8552 7.7919 62.9017C7.25604 61.9622 6.69229 60.8834 6.10048 59.7001C5.46724 58.5309 4.95226 57.1875 4.29797 55.8235C3.77598 54.3967 3.10098 52.949 2.61373 51.3691C2.35615 50.5827 2.08489 49.7893 1.81328 48.9818C1.59062 48.1677 1.36796 47.3393 1.13828 46.5041C0.623135 44.8476 0.344849 43.1078 -0.0239708 41.3956C-0.399973 39.6765 -0.54596 37.9226 -0.817564 36.2104C-0.984601 34.4913 -1.08198 32.7862 -1.20743 31.1437C-1.2699 29.4942 -1.22113 27.8933 -1.24902 26.3761C-1.24902 25.9932 -1.25587 25.6244 -1.25587 25.2556C-1.22815 24.8868 -1.20041 24.5248 -1.17252 24.1628C-1.13076 23.4529 -1.08199 22.7639 -1.04023 22.1028C-0.921964 20.7803 -0.942842 19.5484 -0.754924 18.4835C-0.608766 17.4048 -0.483492 16.4721 -0.378926 15.6995C-0.177144 14.1546 -0.0867732 13.2566 -0.0867732 13.2566C-0.0867732 13.2566 -0.337334 14.1127 -0.733881 15.623C-0.928815 16.3886 -1.1655 17.3074 -1.44396 18.3653C-1.764 19.4231 -1.88945 20.648 -2.11194 21.9845C-2.27213 23.3138 -2.62709 24.7545 -2.64797 26.3064C-2.71762 27.8515 -2.87764 29.4872 -2.86378 31.1784C-2.78009 32.8697 -2.79413 34.6236 -2.62007 36.3984C-2.36267 38.1593 -2.23739 39.9688 -1.86155 41.7365C-1.47168 43.5045 -1.15866 45.2931 -0.601752 46.9914C-0.358044 47.8404 -0.107656 48.6897 0.156933 49.5247C0.470129 50.339 0.769295 51.1465 1.06863 51.9399C1.61835 53.5406 2.41195 54.9883 3.03132 56.4081C3.77598 57.7724 4.41623 59.0878 5.16105 60.2151C5.52303 60.7859 5.85008 61.3496 6.19118 61.8578C6.55298 62.3589 6.88706 62.8321 7.20727 63.2776C7.84051 64.1754 8.45304 64.9131 8.94029 65.5256C9.94936 66.7296 10.6038 67.3421 10.6038 67.3421Z" fill="#00AE85"/>
<path d="M-24.0984 96.4902C-24.0984 96.4902 -21.4397 98.9888 -17.4517 102.747C-15.4681 104.633 -13.1645 106.833 -10.791 109.262C-9.60775 110.473 -8.41076 111.753 -7.26237 113.09C-6.67072 113.751 -6.14188 114.454 -5.61287 115.15L-4.09567 117.377C-2.95413 118.936 -1.6666 120.314 -0.316435 121.574C1.02688 122.847 2.51636 123.898 3.95706 124.887C5.42549 125.826 6.89408 126.675 8.34882 127.337C9.78234 128.033 11.1953 128.569 12.5107 129.007C13.8332 129.445 15.0581 129.773 16.1647 129.981C17.2573 130.239 18.2388 130.35 19.0252 130.482C19.8186 130.601 20.4589 130.601 20.8835 130.649C21.315 130.677 21.5378 130.691 21.5378 130.691C21.5378 130.691 20.6538 130.489 19.0949 130.121C18.3292 129.905 17.3897 129.682 16.3458 129.313C15.2948 128.972 14.1394 128.513 12.8934 127.998C11.6547 127.462 10.3322 126.835 8.98206 126.091C7.61803 125.367 6.2677 124.462 4.88963 123.522C2.18913 121.567 -0.525066 119.138 -2.54355 116.326L-4.13041 114.057C-4.70803 113.312 -5.27879 112.575 -5.89834 111.906C-7.09533 110.514 -8.39689 109.29 -9.63564 108.086C-12.1414 105.712 -14.5982 103.652 -16.7488 101.94C-18.8854 100.214 -20.7507 98.8844 -22.0314 97.9309C-23.3327 96.9913 -24.0984 96.4902 -24.0984 96.4902Z" fill="#00AE85"/>
<path d="M43.0438 118.588C43.0438 118.588 42.0486 118.296 40.3296 117.746C38.6104 117.21 36.1815 116.347 33.307 115.24C31.8731 114.677 30.3421 114.036 28.7343 113.326C27.1336 112.589 25.4701 111.781 23.7998 110.863C22.1223 109.972 20.473 108.9 18.8721 107.744C18.0439 107.167 17.3689 106.533 16.5197 105.858C15.7192 105.211 14.9744 104.529 14.0488 103.923C12.2741 102.664 10.4089 101.71 8.5366 100.826C6.66444 99.9354 4.77123 99.2464 2.96856 98.5435C1.16605 97.8404 -0.587847 97.2142 -2.20945 96.532C-3.83807 95.8709 -5.34141 95.1819 -6.69859 94.4788C-8.04175 93.762 -9.2668 93.073 -10.2899 92.3631C-11.3548 91.7088 -12.1692 90.985 -12.8858 90.4422C-14.2432 89.2659 -15.0087 88.563 -15.0087 88.563C-15.0087 88.563 -14.8417 88.7648 -14.5285 89.1267C-14.2014 89.4885 -13.7768 90.0663 -13.1366 90.7136C-12.4684 91.326 -11.7167 92.1543 -10.7075 92.9269C-9.74002 93.755 -8.56374 94.5902 -7.2276 95.4184C-5.8913 96.2397 -4.40182 97.061 -2.77337 97.8127C-1.15861 98.5921 0.567555 99.3299 2.3562 100.075C4.13097 100.819 5.96137 101.599 7.76405 102.462C9.54584 103.325 11.3554 104.292 12.9422 105.441C13.7565 105.949 14.557 106.652 15.3573 107.285C16.123 107.877 16.9652 108.635 17.8072 109.206C18.6633 109.805 19.5123 110.396 20.4033 110.883C21.2732 111.412 22.1572 111.879 23.0341 112.324C24.774 113.229 26.5281 113.946 28.1914 114.607C29.8618 115.261 31.4696 115.797 32.952 116.256C38.9306 118.052 43.0438 118.588 43.0438 118.588Z" fill="#00AE85"/>
<path d="M62.1696 95.8359C62.1696 95.8359 61.1465 95.9611 59.3438 96.0378C57.5483 96.1352 54.9801 96.1005 51.9247 95.8499C50.4004 95.7246 48.7509 95.5018 47.0249 95.2374C46.1689 95.0773 45.2849 94.9033 44.3801 94.7363C43.4963 94.5204 42.5846 94.2978 41.6588 94.0751C39.8214 93.581 37.9561 92.9685 36.084 92.2656C34.2397 91.5487 32.3465 90.7203 30.4464 89.9062C26.6323 88.3541 22.8113 86.802 19.234 85.3404C17.4592 84.6026 15.7471 83.8788 14.1462 83.1619C12.5455 82.4311 11.0562 81.7003 9.70601 80.9835C8.37655 80.2319 7.17238 79.5219 6.17032 78.7911C5.15406 78.0812 4.34677 77.3504 3.72723 76.717C3.42104 76.39 3.15662 76.0907 2.92009 75.8332C2.69726 75.5687 2.54409 75.3181 2.3981 75.1232C2.11948 74.7266 1.97333 74.5178 1.97333 74.5178C1.97333 74.5178 2.09176 74.7475 2.31442 75.179C2.43285 75.3878 2.55111 75.666 2.73903 75.9654C2.94782 76.2577 3.18435 76.5849 3.44894 76.9606C4.01954 77.6705 4.77121 78.4988 5.73184 79.3409C6.68529 80.1901 7.84053 81.0532 9.15612 81.9091C9.82427 82.3128 10.5202 82.7374 11.2371 83.1759C11.9749 83.5796 12.7404 84.0111 13.5338 84.4217C15.1207 85.236 16.8049 86.0712 18.5799 86.8576C20.3477 87.658 22.1781 88.4723 24.0502 89.2519C25.9225 90.0383 27.8226 90.8388 29.7156 91.639C31.6157 92.4256 33.5087 93.2329 35.4576 93.9637C37.3925 94.6806 39.3551 95.2165 41.2621 95.6758C42.2226 95.8917 43.169 96.0726 44.0948 96.2466C45.0275 96.3719 45.946 96.4972 46.83 96.6224C48.6186 96.8104 50.3099 96.9148 51.8759 96.9216C55.001 96.9635 57.5901 96.6572 59.3787 96.3996C61.1744 96.1282 62.1696 95.8359 62.1696 95.8359Z" fill="#00AE85"/>
<path d="M36.606 43.5393C36.606 43.5393 38.2207 44.4998 40.8863 45.3629C42.2087 45.8152 43.7886 46.2258 45.5077 46.56C46.3707 46.6992 47.2546 46.8939 48.1733 46.9706C49.085 47.082 50.0178 47.1654 50.9503 47.2141C51.8829 47.2698 52.8225 47.2559 53.7414 47.242C54.6599 47.2698 55.5648 47.1376 56.4347 47.082C57.3116 47.0403 58.1468 46.8662 58.9403 46.7478C59.7337 46.6434 60.4715 46.4695 61.1535 46.2886C62.5177 45.9893 63.6173 45.5925 64.376 45.3002C65.1415 45.0218 65.5661 44.8409 65.5661 44.8409C65.5661 44.8409 65.0998 44.8686 64.2925 44.9382C63.8958 44.98 63.4085 45.0358 62.8518 45.0914C62.295 45.1332 61.6685 45.1749 60.9865 45.2306C60.3045 45.2864 59.5666 45.335 58.7872 45.3558C58.0077 45.3837 57.1934 45.4394 56.3443 45.4323C54.6459 45.4532 52.8434 45.4602 51.0407 45.342C49.2382 45.3002 47.4425 45.0914 45.7513 44.9312C44.0669 44.7365 42.487 44.5345 41.1369 44.3257C38.4295 43.9083 36.606 43.5393 36.606 43.5393Z" fill="#00AE85"/>
<path d="M105.523 241.555C105.523 241.555 105.467 217.355 110.799 187.846L120.981 191.548L111.891 182.104C115.364 164.822 120.73 146.19 129.027 129.765L139.195 133.468L131.365 125.366C156.33 80.8369 207.924 59.9849 207.924 59.9849C207.924 59.9849 206.776 82.0131 199.725 109.567L183.85 111.996L198.368 114.669C194.276 129.466 188.492 145.508 180.3 160.416C179.013 162.755 177.649 165.059 176.243 167.348L160.033 161.481L173.5 171.657C147.422 211.307 105.523 241.555 105.523 241.555Z" fill="#008563"/>
<path d="M207.924 59.9854C202.746 67.0009 197.707 74.1071 192.814 81.3106C187.9 88.5002 183.07 95.7455 178.386 103.081L171.405 114.113L164.543 125.221C160.109 132.71 155.634 140.171 151.437 147.792L148.187 153.457C147.115 155.343 146.099 157.271 145.048 159.178L138.826 170.648C134.879 178.401 130.822 186.106 127.057 193.95C125.163 197.868 123.187 201.752 121.356 205.698L115.955 217.586C115.058 219.569 114.097 221.532 113.234 223.529L110.68 229.543C108.989 233.552 107.263 237.554 105.523 241.556C107.005 237.456 108.508 233.364 110.04 229.285L112.329 223.154C113.095 221.107 113.965 219.11 114.786 217.084L119.853 205.016C121.586 201.014 123.451 197.068 125.247 193.087L127.961 187.129C128.859 185.145 129.896 183.218 130.857 181.262L136.717 169.548L142.862 157.988C143.893 156.06 144.895 154.125 145.953 152.218L149.168 146.511C157.833 131.352 166.93 116.437 176.722 101.989C181.615 94.7571 186.64 87.6233 191.777 80.5728C197.031 73.606 202.279 66.6391 207.924 59.9854Z" fill="#00AE85"/>
<path d="M181.747 115.178C157.541 107.431 132.109 117.467 121.273 122.743C116.08 123.286 110.909 124.003 105.773 124.894C129.082 113.062 155.063 87.4494 139.988 88.4168C123.841 89.4538 98.1587 118.859 90.5585 127.991C85.3246 129.223 80.1257 130.601 74.9893 132.125C95.8481 115.895 118.322 78.8748 102.926 84.1435C87.7536 89.3426 70.8758 123.877 65.7743 135.006C59.6077 137.046 53.5388 139.273 47.574 141.639C67.0688 124.024 86.8837 81.6587 71.6971 88.918C56.8656 96.01 43.8228 133.921 40.4193 144.555C34.0859 147.228 27.8844 150.047 21.8363 152.977C40.99 135.229 60.0671 90.3237 44.9084 98.3347C29.9447 106.234 18.1824 146.692 15.6352 156.06C9.46849 159.171 3.47617 162.387 -2.31452 165.658C15.4053 146.393 30.9955 100.91 16.526 109.895C2.2999 118.741 -6.56715 159.192 -8.57845 169.249C-57.959 198.119 -91.4013 229.508 -92 230.079L-88.9654 233.273C-88.3947 232.731 -57.6876 203.909 -11.8425 176.286C-2.32155 181.45 33.7309 200.088 49.4602 194.903C66.0945 189.419 18.1406 171.372 -7.59026 173.745C-1.29844 170.05 5.26482 166.389 12.0507 162.832C20.7227 167.572 57.84 187.011 73.8618 181.728C90.6143 176.209 41.9019 157.953 16.3032 160.633C22.3514 157.55 28.5596 154.564 34.9211 151.724C43.8297 156.589 80.6754 175.819 96.6136 170.565C113.074 165.136 66.331 147.416 40.4122 149.323C46.544 146.706 52.7939 144.235 59.1554 141.945C67.5838 146.553 104.986 166.222 121.092 160.911C137.357 155.545 91.8878 138.18 65.809 139.628C72.9848 137.22 80.2717 135.055 87.6633 133.204C97.1774 138.368 133.237 157.014 148.966 151.829C164.055 146.852 126.012 131.547 99.6133 130.51C106.462 129.132 113.373 128.033 120.333 127.267C144.818 134.15 198.869 120.655 181.747 115.178Z" fill="#00AF8A"/>
</svg>
