<svg width="48" height="48" viewBox="0 0 48 48" fill="none" xmlns="http://www.w3.org/2000/svg">
<path d="M38.6669 18.749V12.999C38.6669 10.7899 36.876 8.99902 34.6669 8.99902H28.9169M38.6669 29.249V34.999C38.6669 37.2082 36.876 38.999 34.6669 38.999H28.9169M18.4169 38.999H12.6669C10.4577 38.999 8.66687 37.2082 8.66687 34.999V29.249M8.66687 18.749V12.999C8.66687 10.7899 10.4577 8.99902 12.6669 8.99902H18.4169" stroke="#269E6C" stroke-width="1.5" stroke-linecap="round"/>
<path d="M40.3333 23.999L7 23.999" stroke="#269E6C" stroke-width="1.5" stroke-linecap="round" stroke-linejoin="round"/>
<path fill-rule="evenodd" clip-rule="evenodd" d="M13.6673 18.999C13.6673 16.2376 15.9059 13.999 18.6673 13.999H28.6673C31.4287 13.999 33.6673 16.2376 33.6673 18.999V21.5811L13.6673 21.5811V18.999ZM13.6673 23.0811V24.917L33.6673 24.917V23.0811L13.6673 23.0811ZM13.6673 26.417L33.6673 26.417V28.999C33.6673 31.7604 31.4287 33.999 28.6673 33.999H18.6673C15.9059 33.999 13.6673 31.7604 13.6673 28.999V26.417Z" fill="#269E6C"/>
</svg>
