<svg width="200" height="32" viewBox="0 0 200 32" fill="none" xmlns="http://www.w3.org/2000/svg">
<path d="M66.0634 29.0009C78.1389 29.0009 84.7437 18.9965 84.7437 10.3206C84.7437 10.0365 84.7437 9.75357 84.7245 9.47197C86.0094 8.54258 87.1185 7.39182 88 6.07357C86.8019 6.60477 85.5307 6.95298 84.2291 7.10653C85.5998 6.28612 86.6255 4.99558 87.1155 3.47517C85.8268 4.23998 84.4168 4.77894 82.9466 5.06877C81.9567 4.01621 80.6475 3.31923 79.2216 3.08568C77.7957 2.85214 76.3326 3.09506 75.0586 3.77684C73.7847 4.45863 72.771 5.54127 72.1743 6.85724C71.5777 8.1732 71.4314 9.64912 71.7581 11.0566C69.1479 10.9257 66.5943 10.2473 64.2633 9.06558C61.9322 7.88384 59.8757 6.22512 58.2272 4.19709C57.3876 5.64242 57.1305 7.3534 57.5081 8.98165C57.8858 10.6099 58.8698 12.033 60.2598 12.9613C59.215 12.9306 58.1929 12.6488 57.28 12.1395V12.2227C57.2804 13.7385 57.8051 15.2075 58.7652 16.3805C59.7252 17.5535 61.0614 18.3584 62.5472 18.6585C61.5806 18.9222 60.5665 18.9607 59.5827 18.7712C60.0024 20.0756 60.8192 21.2163 61.919 22.0338C63.0187 22.8512 64.3464 23.3046 65.7165 23.3305C64.3553 24.4005 62.7964 25.1916 61.1292 25.6585C59.4619 26.1255 57.719 26.2591 56 26.0518C59.0024 27.9785 62.4959 29.0005 66.0634 28.9958" fill="#1DA1F2"/>
<g clip-path="url(#clip0_102_3217)">
<path d="M16 2.88125C20.275 2.88125 20.7813 2.9 22.4625 2.975C24.025 3.04375 24.8688 3.30625 25.4313 3.525C26.175 3.8125 26.7125 4.1625 27.2688 4.71875C27.8313 5.28125 28.175 5.8125 28.4625 6.55625C28.6813 7.11875 28.9438 7.96875 29.0125 9.525C29.0875 11.2125 29.1063 11.7188 29.1063 15.9875C29.1063 20.2625 29.0875 20.7688 29.0125 22.45C28.9438 24.0125 28.6813 24.8563 28.4625 25.4188C28.175 26.1625 27.825 26.7 27.2688 27.2563C26.7063 27.8188 26.175 28.1625 25.4313 28.45C24.8688 28.6688 24.0188 28.9313 22.4625 29C20.775 29.075 20.2688 29.0938 16 29.0938C11.725 29.0938 11.2188 29.075 9.5375 29C7.975 28.9313 7.13125 28.6688 6.56875 28.45C5.825 28.1625 5.2875 27.8125 4.73125 27.2563C4.16875 26.6938 3.825 26.1625 3.5375 25.4188C3.31875 24.8563 3.05625 24.0063 2.9875 22.45C2.9125 20.7625 2.89375 20.2563 2.89375 15.9875C2.89375 11.7125 2.9125 11.2063 2.9875 9.525C3.05625 7.9625 3.31875 7.11875 3.5375 6.55625C3.825 5.8125 4.175 5.275 4.73125 4.71875C5.29375 4.15625 5.825 3.8125 6.56875 3.525C7.13125 3.30625 7.98125 3.04375 9.5375 2.975C11.2188 2.9 11.725 2.88125 16 2.88125ZM16 0C11.6563 0 11.1125 0.01875 9.40625 0.09375C7.70625 0.16875 6.5375 0.44375 5.525 0.8375C4.46875 1.25 3.575 1.79375 2.6875 2.6875C1.79375 3.575 1.25 4.46875 0.8375 5.51875C0.44375 6.5375 0.16875 7.7 0.09375 9.4C0.01875 11.1125 0 11.6562 0 16C0 20.3438 0.01875 20.8875 0.09375 22.5938C0.16875 24.2938 0.44375 25.4625 0.8375 26.475C1.25 27.5313 1.79375 28.425 2.6875 29.3125C3.575 30.2 4.46875 30.75 5.51875 31.1562C6.5375 31.55 7.7 31.825 9.4 31.9C11.1063 31.975 11.65 31.9937 15.9938 31.9937C20.3375 31.9937 20.8813 31.975 22.5875 31.9C24.2875 31.825 25.4563 31.55 26.4688 31.1562C27.5188 30.75 28.4125 30.2 29.3 29.3125C30.1875 28.425 30.7375 27.5313 31.1438 26.4813C31.5375 25.4625 31.8125 24.3 31.8875 22.6C31.9625 20.8938 31.9813 20.35 31.9813 16.0063C31.9813 11.6625 31.9625 11.1188 31.8875 9.4125C31.8125 7.7125 31.5375 6.54375 31.1438 5.53125C30.75 4.46875 30.2063 3.575 29.3125 2.6875C28.425 1.8 27.5313 1.25 26.4813 0.84375C25.4625 0.45 24.3 0.175 22.6 0.1C20.8875 0.01875 20.3438 0 16 0Z" fill="#000100"/>
<path d="M16 7.78125C11.4625 7.78125 7.78125 11.4625 7.78125 16C7.78125 20.5375 11.4625 24.2188 16 24.2188C20.5375 24.2188 24.2188 20.5375 24.2188 16C24.2188 11.4625 20.5375 7.78125 16 7.78125ZM16 21.3312C13.0563 21.3312 10.6687 18.9438 10.6687 16C10.6687 13.0563 13.0563 10.6687 16 10.6687C18.9438 10.6687 21.3312 13.0563 21.3312 16C21.3312 18.9438 18.9438 21.3312 16 21.3312Z" fill="#000100"/>
<path d="M26.4625 7.45635C26.4625 8.51885 25.6 9.3751 24.5438 9.3751C23.4813 9.3751 22.625 8.5126 22.625 7.45635C22.625 6.39385 23.4875 5.5376 24.5438 5.5376C25.6 5.5376 26.4625 6.4001 26.4625 7.45635Z" fill="#000100"/>
</g>
<g clip-path="url(#clip1_102_3217)">
<path d="M141.638 0H114.362C113.736 0 113.135 0.248877 112.692 0.691879C112.249 1.13488 112 1.73572 112 2.36222V29.6378C112 30.2643 112.249 30.8651 112.692 31.3081C113.135 31.7511 113.736 32 114.362 32H141.638C142.264 32 142.865 31.7511 143.308 31.3081C143.751 30.8651 144 30.2643 144 29.6378V2.36222C144 1.73572 143.751 1.13488 143.308 0.691879C142.865 0.248877 142.264 0 141.638 0ZM121.538 27.26H116.727V11.9778H121.538V27.26ZM119.129 9.86C118.583 9.85693 118.051 9.69226 117.598 9.38678C117.146 9.08131 116.794 8.64871 116.588 8.14359C116.381 7.63846 116.329 7.08346 116.437 6.54861C116.546 6.01376 116.81 5.52304 117.198 5.13838C117.585 4.75372 118.077 4.49236 118.613 4.38728C119.148 4.28221 119.703 4.33812 120.207 4.54798C120.71 4.75784 121.141 5.11222 121.443 5.56642C121.746 6.02061 121.907 6.55426 121.907 7.1C121.912 7.46538 121.843 7.82805 121.705 8.16641C121.567 8.50476 121.363 8.81187 121.103 9.06942C120.844 9.32698 120.536 9.52971 120.197 9.66553C119.857 9.80136 119.494 9.86749 119.129 9.86ZM139.271 27.2733H134.462V18.9244C134.462 16.4622 133.416 15.7022 132.064 15.7022C130.638 15.7022 129.238 16.7778 129.238 18.9867V27.2733H124.427V11.9889H129.053V14.1067H129.116C129.58 13.1667 131.207 11.56 133.689 11.56C136.373 11.56 139.273 13.1533 139.273 17.82L139.271 27.2733Z" fill="#0A66C2"/>
</g>
<g clip-path="url(#clip2_102_3217)">
<path fill-rule="evenodd" clip-rule="evenodd" d="M184 0.666748C180.202 0.668719 176.528 2.01403 173.636 4.46211C170.743 6.9102 168.821 10.3014 168.213 14.0294C167.604 17.7574 168.349 21.579 170.314 24.811C172.28 28.0429 175.337 30.4744 178.94 31.6707C179.735 31.8182 180.034 31.3256 180.034 30.9067C180.034 30.4879 180.018 29.2734 180.013 27.9457C175.562 28.9072 174.621 26.0674 174.621 26.0674C173.895 24.2233 172.846 23.7386 172.846 23.7386C171.394 22.7533 172.955 22.7718 172.955 22.7718C174.563 22.8851 175.408 24.413 175.408 24.413C176.834 26.8445 179.152 26.1412 180.063 25.7302C180.206 24.7002 180.622 23.9994 181.081 23.6016C177.525 23.2012 173.789 21.8366 173.789 15.7406C173.767 14.1597 174.357 12.6308 175.437 11.4703C175.273 11.0699 174.725 9.45239 175.594 7.25532C175.594 7.25532 176.937 6.82855 179.994 8.886C182.617 8.17291 185.384 8.17291 188.006 8.886C191.061 6.82855 192.402 7.25532 192.402 7.25532C193.273 9.44712 192.725 11.0646 192.561 11.4703C193.644 12.631 194.235 14.1625 194.211 15.7459C194.211 21.855 190.468 23.2012 186.907 23.5937C187.479 24.089 187.99 25.0558 187.99 26.5416C187.99 28.6702 187.972 30.3825 187.972 30.9067C187.972 31.3309 188.261 31.8261 189.071 31.6707C192.675 30.4743 195.732 28.0424 197.697 24.8099C199.663 21.5774 200.407 17.7551 199.798 14.0268C199.189 10.2985 197.266 6.90722 194.372 4.45956C191.479 2.01189 187.804 0.66747 184.006 0.666748H184Z" fill="#191717"/>
<path d="M174.059 23.5093C174.025 23.5884 173.898 23.6121 173.794 23.5568C173.691 23.5014 173.614 23.3987 173.651 23.317C173.688 23.2354 173.813 23.2143 173.916 23.2696C174.02 23.3249 174.099 23.4303 174.059 23.5093Z" fill="#191717"/>
<path d="M174.708 24.2286C174.654 24.2561 174.591 24.2638 174.531 24.2503C174.471 24.2368 174.418 24.2031 174.38 24.1548C174.277 24.0442 174.255 23.8914 174.335 23.8229C174.414 23.7544 174.557 23.786 174.661 23.8967C174.764 24.0073 174.788 24.1601 174.708 24.2286Z" fill="#191717"/>
<path d="M175.339 25.1427C175.241 25.2112 175.074 25.1427 174.981 25.0057C174.956 24.9811 174.935 24.9517 174.921 24.9191C174.907 24.8865 174.9 24.8515 174.9 24.816C174.9 24.7806 174.907 24.7456 174.921 24.713C174.935 24.6804 174.956 24.6509 174.981 24.6264C175.079 24.5605 175.246 24.6264 175.339 24.7607C175.432 24.8951 175.434 25.0742 175.339 25.1427Z" fill="#191717"/>
<path d="M176.195 26.0277C176.107 26.1252 175.93 26.0989 175.784 25.9672C175.638 25.8354 175.604 25.6563 175.691 25.5615C175.779 25.4666 175.956 25.493 176.107 25.6221C176.258 25.7511 176.287 25.9329 176.195 26.0277Z" fill="#191717"/>
<path d="M177.395 26.544C177.355 26.6678 177.175 26.7232 176.995 26.6705C176.815 26.6178 176.695 26.4703 176.73 26.3438C176.764 26.2174 176.947 26.1594 177.13 26.2174C177.313 26.2753 177.429 26.4149 177.395 26.544Z" fill="#191717"/>
<path d="M178.704 26.6337C178.704 26.7628 178.555 26.8735 178.365 26.8761C178.174 26.8787 178.018 26.7734 178.018 26.6443C178.018 26.5152 178.166 26.4045 178.357 26.4019C178.547 26.3993 178.704 26.502 178.704 26.6337Z" fill="#191717"/>
<path d="M179.923 26.4309C179.946 26.56 179.814 26.6943 179.623 26.7259C179.432 26.7576 179.265 26.6812 179.242 26.5547C179.218 26.4283 179.356 26.2913 179.541 26.257C179.726 26.2228 179.899 26.3018 179.923 26.4309Z" fill="#191717"/>
</g>
<defs>
<clipPath id="clip0_102_3217">
<rect width="32" height="32" fill="white"/>
</clipPath>
<clipPath id="clip1_102_3217">
<rect width="32" height="32" fill="white" transform="translate(112)"/>
</clipPath>
<clipPath id="clip2_102_3217">
<rect width="32" height="32" fill="white" transform="translate(168)"/>
</clipPath>
</defs>
</svg>
