<svg width="48" height="48" viewBox="0 0 48 48" fill="none" xmlns="http://www.w3.org/2000/svg">
<path fill-rule="evenodd" clip-rule="evenodd" d="M28.336 9.5874C29.1165 8.80576 30.3823 8.80528 31.1634 9.58633L37.7286 16.1515C38.503 16.9259 38.511 18.1796 37.7466 18.9638L33.3505 23.4742L23.9032 14.0269L28.336 9.5874ZM22.8434 15.0884L32.3035 24.5485L19.6844 37.4958C19.12 38.0749 18.3458 38.4014 17.5375 38.4014L10.4994 38.4011C9.64654 38.401 8.96547 37.6901 9.00134 36.8374L9.29849 29.7727C9.33009 29.0214 9.64232 28.3094 10.1734 27.7776L22.8434 15.0884ZM38.6925 39.0203C39.1066 39.0203 39.4423 38.6844 39.4423 38.27C39.4423 37.8556 39.1066 37.5197 38.6925 37.5197H27.8689C27.4548 37.5197 27.1192 37.8556 27.1192 38.27C27.1192 38.6844 27.4548 39.0203 27.8689 39.0203H38.6925Z" fill="#269E6C"/>
</svg>
