<svg width="60" height="60" viewBox="0 0 60 60" fill="none" xmlns="http://www.w3.org/2000/svg">
<path d="M58.9998 30C58.9998 46.0162 46.0161 59 29.9999 59C13.9837 59 1 46.0162 1 30C1 13.9837 13.9837 1 29.9999 1C46.0161 1 58.9998 13.9837 58.9998 30Z" fill="#269E6C" stroke="#269E6C" stroke-width="2" stroke-miterlimit="1.5" stroke-linecap="round" stroke-linejoin="round"/>
<path d="M27.1361 0.019125C26.816 0.032025 26.4962 0.0833237 26.4065 0.108824C26.3042 0.147524 26.5601 0.813822 27.1616 2.05672C27.6608 3.09472 28.3394 4.65832 28.685 5.51692L29.312 7.06732L29.069 7.75942C28.9409 8.13112 28.5953 9.27142 28.2881 10.2968C27.9938 11.3219 27.6992 12.206 27.6482 12.2573C27.5969 12.3215 27.3026 11.6294 27.008 10.7195C26.0096 7.73362 24.653 4.64542 23.2064 2.08252L22.5152 0.839323L21.7856 1.03162C21.389 1.13422 21.0305 1.24942 21.005 1.27522C20.9792 1.30072 21.197 1.71082 21.4784 2.19772C24.8576 7.88752 27.5072 16.3067 28.6082 24.8414C29.1842 29.3393 29.2097 30.2492 29.2736 45.281C29.2994 53.2133 29.3504 59.7746 29.3762 59.8643C29.4146 59.9795 29.645 60.0179 30.1058 59.9924L30.7841 59.954L30.8609 45.0248C30.9377 28.9166 30.9506 28.5065 31.6802 23.4062C32.8193 15.5378 35.1488 8.10532 38.2336 2.56942C38.6305 1.87732 38.9248 1.28782 38.8993 1.27522C38.8735 1.24942 38.5409 1.13422 38.1569 1.01872C37.517 0.826725 37.4528 0.826724 37.2992 1.04452C36.9152 1.54432 34.6496 6.26002 33.9968 7.92592C32.4098 12.0011 30.6818 18.6776 30.2594 22.445C30.221 22.8809 30.1313 23.2781 30.08 23.3036C30.0161 23.342 29.9009 22.9448 29.8241 22.445C29.6066 21.1253 28.9922 17.8574 28.7234 16.6016L28.493 15.5507L28.9154 13.7822C29.8241 10.0277 31.6802 4.91452 33.3569 1.55692L34.0481 0.185925L33.6257 0.108824C33.3953 0.0578238 33.0113 0.044922 32.7809 0.070422C32.3969 0.108822 32.3072 0.198526 31.9232 0.941926C31.6802 1.40333 31.2065 2.42842 30.8609 3.22282C30.5153 4.01752 30.1952 4.67092 30.1313 4.67092C30.08 4.67092 29.6834 3.87652 29.2481 2.90242C28.352 0.890622 27.9554 0.083325 27.8144 0.019125C27.7505 -0.006375 27.4562 -0.006375 27.1361 0.019125Z" fill="#F9F9F9"/>
<path d="M17.127 2.73661C16.8582 2.87761 16.6404 3.0315 16.6404 3.0699C16.6404 3.0954 16.9605 3.65941 17.3574 4.31281C18.33 5.9274 19.6356 8.67 19.4949 8.7981C19.3926 8.9007 16.9605 8.0292 15.9492 7.5165C15.45 7.2732 14.5029 6.69631 13.8501 6.23521L12.6468 5.415L12.1476 5.7609C11.8659 5.9532 11.5971 6.17101 11.5587 6.23521C11.3925 6.51691 13.5939 8.0676 15.4758 9.0159C16.602 9.5799 18.7524 10.3359 19.674 10.4895C19.9686 10.5279 20.2629 10.6434 20.3268 10.7202C20.5062 10.9509 21.7989 14.9106 21.7221 14.9877C21.6453 15.0645 19.3413 14.4366 17.7798 13.8984C14.7717 12.8733 11.5077 11.1561 9.31893 9.4389C8.92203 9.1185 8.53803 8.9007 8.46123 8.9391C8.39733 8.9904 8.16693 9.2466 7.94913 9.5157L7.55253 10.0155L8.55093 10.7715C10.3173 12.1428 12.4419 13.3728 14.682 14.3469C16.2948 15.0387 19.7124 16.1922 21.159 16.5255C21.7734 16.6662 22.2084 16.833 22.2726 16.9611C22.7334 17.8326 24.4356 28.5456 24.1668 28.8276C24.1284 28.8531 23.7702 28.3278 23.3604 27.6486C19.4949 21.2667 13.4148 16.3587 6.40054 14.001C5.13334 13.578 4.91554 13.5396 4.73644 13.6932C4.50604 13.8984 4.03235 14.757 4.10914 14.8338C4.13494 14.8593 4.87714 15.1287 5.76034 15.4233C6.64354 15.7179 7.97493 16.2306 8.71713 16.5639C10.4067 17.3199 13.2099 18.9858 13.1076 19.1652C13.0437 19.2549 12.2499 19.2804 10.6371 19.2294C7.69323 19.1397 5.72194 18.7551 3.48214 17.871C3.11074 17.7171 2.75255 17.6019 2.70125 17.6019C2.58605 17.6019 1.99715 18.8832 2.07395 18.9474C2.27885 19.1268 4.69804 19.947 5.76034 20.2032C7.82133 20.703 9.47253 20.8569 12.0324 20.7543C13.2612 20.7159 14.4771 20.6388 14.7204 20.6004C15.1428 20.5365 15.2454 20.6004 16.5126 21.7539C17.7924 22.9071 18.8934 24.099 18.7908 24.2013C18.7653 24.2271 18.2022 24.3297 17.5365 24.4194C15.6804 24.6627 10.0227 24.6243 8.12853 24.3423C6.10594 24.0606 3.76354 23.4837 2.22755 22.9071C1.54925 22.6635 0.947755 22.497 0.896455 22.5612C0.845155 22.6125 0.742854 22.9329 0.666054 23.2788C0.512454 23.9964 0.422755 23.9196 2.25335 24.5601C3.72514 25.0728 5.78614 25.5597 7.93653 25.8801C10.074 26.2134 15.8853 26.2134 18.3429 25.8801C20.0709 25.6494 20.1093 25.6494 20.3013 25.8801C21.3126 27.1872 24.1542 31.8903 25.3446 34.2609C25.626 34.8249 25.8948 35.2863 25.9461 35.2863C25.9845 35.2863 25.9845 34.0944 25.9461 32.6208C25.7286 25.5855 24.5766 18.6141 22.6308 12.4887C21.3894 8.5545 18.522 2.59561 17.8566 2.51881C17.7156 2.50591 17.3829 2.59561 17.127 2.73661Z" fill="#F9F9F9"/>
<path d="M41.5231 3.00577C40.8193 4.13347 39.3985 6.99126 38.7073 8.69556C36.544 14.0266 35.1745 19.6651 34.4449 26.2519C34.1503 28.9174 33.9199 32.4157 33.9199 34.2226L33.9328 35.4784L34.7137 34.0047C36.8512 29.9809 39.5647 25.6753 39.9616 25.6753C40.0513 25.6753 40.768 25.765 41.536 25.8673C43.5457 26.1493 47.9488 26.2519 50.0992 26.0725C52.1473 25.8931 54.7201 25.4446 56.3842 24.9703C57.7024 24.586 59.2383 24.0349 59.3151 23.8939C59.3919 23.7787 59.136 22.7023 59.0079 22.5613C58.9569 22.4971 58.368 22.651 57.6898 22.9072C56.0257 23.5351 54.3361 23.9581 52.1857 24.2911C50.6626 24.5218 49.8049 24.5731 46.9762 24.5731C44.0194 24.5731 41.3056 24.4066 41.1007 24.2014C41.0239 24.1117 42.112 22.9714 43.5199 21.6643C44.6593 20.6005 44.7616 20.5366 45.184 20.6005C45.4273 20.6389 46.6177 20.716 47.821 20.7544C50.317 20.857 52.1986 20.6902 54.157 20.2162C55.501 19.8958 57.856 19.0372 57.856 18.8833C57.856 18.8194 57.7408 18.5119 57.6001 18.1786C57.4081 17.7172 57.2929 17.5891 57.1138 17.6404C56.9986 17.6788 56.32 17.9095 55.6162 18.1528C53.5936 18.8578 51.853 19.1524 49.2418 19.2295C47.8594 19.2805 46.912 19.255 46.8352 19.1782C46.6561 18.9988 49.7665 17.179 51.5584 16.4101C52.3906 16.0642 53.7088 15.5644 54.4897 15.3082L55.936 14.8339L55.5394 14.1931C55.3216 13.8472 55.1296 13.5523 55.1041 13.5268C55.0912 13.5013 54.3616 13.7191 53.4913 14.0137C51.4945 14.6674 47.9617 16.3972 46.1824 17.602C42.5215 20.0623 39.0016 23.7274 36.6847 27.4564C36.1984 28.2511 35.776 28.8661 35.7505 28.8406C35.4817 28.5715 37.0816 18.4606 37.6192 17.0638C37.7089 16.8073 37.9393 16.7176 38.9887 16.4614C43.3537 15.4105 47.8594 13.3858 51.0082 11.0407C52.4929 9.93876 52.4929 9.95136 51.7378 9.23377L51.3538 8.86207L50.317 9.64387C47.8978 11.4379 45.2224 12.8347 42.2017 13.8727C40.4992 14.4622 38.272 15.0901 38.1952 15.0004C38.1313 14.9365 39.0784 11.9251 39.4111 11.1433C39.6415 10.6051 39.6799 10.5922 40.4479 10.4383C41.6896 10.195 43.3153 9.57997 44.9281 8.74687C46.477 7.95247 48.3202 6.63247 48.3202 6.32497C48.3202 6.22237 48.0898 5.97877 47.7952 5.77387L47.2705 5.40217L46.285 6.10687C45.7474 6.50437 44.8 7.06807 44.1856 7.38847C42.9823 8.01637 40.4863 8.92627 40.3969 8.78527C40.3201 8.65717 41.8561 5.47897 42.6112 4.22317C42.9697 3.63367 43.264 3.12127 43.264 3.06997C43.264 2.96737 42.2785 2.48047 42.0607 2.48047C41.9455 2.48047 41.7151 2.71117 41.5231 3.00577Z" fill="#F9F9F9"/>
<path d="M6.05458 28.8774C4.24979 29.0823 1.7793 29.7744 0.473701 30.4278C0.0258029 30.6585 0 30.7098 0 31.2864C0 32.1834 0.115204 32.286 0.717002 31.9785C0.998401 31.8375 1.728 31.5429 2.3424 31.3248C5.97778 30.0435 10.1376 30.0177 13.5936 31.2609C15.4755 31.9401 17.7281 33.2601 19.0082 34.4262L19.6481 35.0157L17.792 35.0283C16.7682 35.0283 15.5907 35.0925 15.1554 35.1567C14.4258 35.2719 14.3361 35.259 13.3632 34.8489C11.8017 34.1955 10.368 33.8622 8.69127 33.7854C6.88648 33.6957 5.47859 33.888 3.91679 34.4004C2.637 34.8234 0.7809 35.7459 0.6786 36.0024C0.588901 36.2457 0.8961 37.4631 1.0368 37.4631C1.101 37.4631 1.3698 37.3224 1.6386 37.1556C4.46729 35.3745 7.94877 34.8363 11.1744 35.682C11.4306 35.7459 11.6481 35.8485 11.6481 35.8998C11.6481 35.964 11.4306 36.0792 11.1744 36.1689C10.1376 36.5406 8.51218 37.3863 7.41118 38.1297C6.13138 38.9883 4.17299 40.7823 3.32819 41.8971L2.77769 42.6018L2.99519 43.0761C3.12329 43.3323 3.30239 43.6911 3.41759 43.8579L3.60959 44.1525L4.05779 43.4733C4.73608 42.4482 7.09138 40.1799 8.25597 39.3984C11.1105 37.5273 14.2338 36.5661 17.549 36.5661C19.1105 36.5661 20.8898 36.7584 21.2738 36.9633C21.581 37.1301 22.3874 38.3475 23.0273 39.6162C25.2545 44.0628 25.4081 49.176 23.4368 53.7381C22.8224 55.1349 21.6449 57.0699 21.4016 57.0699C21.056 57.0699 18.701 56.1216 17.2802 55.404C15.7058 54.6093 13.8882 53.469 12.5442 52.4181C10.7394 51.0084 8.07688 48.2148 6.80968 46.395L6.29758 45.6648L5.90098 46.2798C5.68319 46.6257 5.50408 46.9845 5.50408 47.0871C5.51698 47.3307 6.43858 48.5352 7.76968 50.0472C9.39537 51.8928 11.5842 53.7636 13.9008 55.2759C16.4355 56.9418 21.7217 59.133 22.208 58.7358C22.3232 58.6461 22.784 58.0053 23.2322 57.3261C24.5888 55.3014 25.4465 53.2383 26.0096 50.688C26.4194 48.8427 26.4194 45.3699 26.0096 43.4991C25.2032 39.9108 23.7185 37.053 21.3248 34.5414C18.6113 31.6965 15.0018 29.7102 11.328 29.0694C9.93297 28.8261 7.30888 28.7235 6.05458 28.8774Z" fill="#F9F9F9"/>
<path d="M49.9582 28.8785C44.7487 29.4296 39.7309 32.4794 36.787 36.8876C35.3788 39.0149 34.4956 41.1038 33.958 43.6154C33.6253 45.1661 33.6382 49.1258 33.9709 50.6636C34.483 53.0342 35.5069 55.4564 36.8125 57.404C37.9261 59.0699 37.7341 59.006 39.6541 58.3652C42.7645 57.3401 46.5151 55.2383 49.1389 53.0471C51.0079 51.4838 54.5277 47.5751 54.5277 47.0627C54.5277 46.9985 54.3357 46.6526 54.0924 46.2938L53.67 45.6659L53.3118 46.2041C52.6461 47.2292 51.0847 49.0616 49.8301 50.2919C47.731 52.3679 45.2863 54.1235 42.7516 55.4051C41.5741 55.9946 38.9116 57.071 38.6173 57.071C38.2204 57.071 36.646 54.2132 36.0445 52.3934C35.494 50.7149 35.3149 49.6769 35.2381 47.7032C35.0974 44.1152 35.9806 40.886 37.9006 37.9769C38.5534 36.9902 38.5918 36.9518 39.283 36.7979C39.7438 36.6953 40.8958 36.6314 42.4318 36.6314C44.6461 36.6443 44.9917 36.6698 46.2718 36.9902C50.0479 37.9385 53.2092 39.9887 55.5645 43.013L56.4348 44.1407L57.2286 42.5774L56.5245 41.7188C54.5406 39.2969 51.9295 37.4258 48.7678 36.1187L48.1918 35.888L48.7678 35.7086C51.6349 34.85 55.0653 35.273 57.8046 36.8492C58.3932 37.1825 58.9308 37.4642 58.995 37.4642C59.046 37.4642 59.1612 37.1312 59.2509 36.7211C59.379 36.0674 59.3661 35.9777 59.1741 35.8241C58.5981 35.3882 56.5245 34.4912 55.3596 34.1708C54.195 33.8507 53.8749 33.812 51.9679 33.812C50.0734 33.812 49.7278 33.8507 48.6142 34.1582C47.9359 34.3502 46.9885 34.6835 46.5277 34.8884C45.7213 35.2601 45.619 35.273 44.8255 35.1578C44.3518 35.0936 43.1614 35.0294 42.1756 35.0294L40.3837 35.0168L41.0365 34.4015C42.355 33.1715 44.8639 31.7489 46.7965 31.1465C48.6526 30.5573 49.9582 30.365 52.0317 30.3776C54.7326 30.3776 57.0237 30.8903 59.1486 31.9667L59.8782 32.3255L59.955 31.5311C60.0702 30.5957 60.0702 30.5957 58.5726 30.0188C55.8588 28.9682 52.8765 28.571 49.9582 28.8785Z" fill="#F9F9F9"/>
</svg>
