<svg width="33" height="30" viewBox="0 0 33 30" fill="none" xmlns="http://www.w3.org/2000/svg">
<path d="M8.376 29.848C6.968 29.848 5.688 29.3573 4.536 28.376C3.42667 27.352 2.552 26.0293 1.912 24.408C1.272 22.7867 0.952 21.0587 0.952 19.224C0.952 16.2373 1.48533 13.4427 2.552 10.84C3.61867 8.19466 4.94133 5.95466 6.52 4.12C8.09867 2.24266 9.61333 0.898664 11.064 0.0879974H11.128L13.624 2.328V3.352C12.5573 4.33333 11.5547 5.74133 10.616 7.576C9.72 9.41066 9.272 11.672 9.272 14.36C9.272 15.6827 9.464 16.7707 9.848 17.624C10.232 18.4773 10.7867 19.3733 11.512 20.312C12.152 21.1653 12.6213 21.9333 12.92 22.616C13.2187 23.256 13.368 24.0667 13.368 25.048C13.368 26.4133 12.8773 27.5653 11.896 28.504C10.9573 29.4 9.784 29.848 8.376 29.848ZM26.808 29.848C25.4 29.848 24.12 29.3573 22.968 28.376C21.8587 27.352 20.984 26.0293 20.344 24.408C19.704 22.7867 19.384 21.0587 19.384 19.224C19.384 16.2373 19.9173 13.4427 20.984 10.84C22.0507 8.19466 23.3733 5.95466 24.952 4.12C26.5307 2.24266 28.0453 0.898664 29.496 0.0879974H29.56L32.056 2.328V3.352C30.9893 4.33333 29.9867 5.76266 29.048 7.64C28.1093 9.47467 27.64 11.7147 27.64 14.36C27.64 15.6827 27.832 16.7707 28.216 17.624C28.6 18.4773 29.1547 19.3733 29.88 20.312C30.52 21.1653 30.9893 21.9333 31.288 22.616C31.5867 23.256 31.736 24.0667 31.736 25.048C31.736 26.4133 31.2667 27.5653 30.328 28.504C29.3893 29.4 28.216 29.848 26.808 29.848Z" fill="#269E6C"/>
</svg>
